<svg xmlns="http://www.w3.org/2000/svg" viewBox="0 0 187.73 226.8"><defs><style>.cls-1,.cls-2{fill:#f15a24;}.cls-2{fill-rule:evenodd;}</style></defs><g id="Layer_2" data-name="Layer 2"><g id="Layer_1-2" data-name="Layer 1"><path class="cls-1" d="M100.05,221l-.11,0-.75.36-.2.05-.15-.05L98.1,221a.2.2,0,0,0-.25,0l0,.11-.18,4.46.05.21.11.13,1.08.78.16,0,.12,0,1.09-.78.12-.16,0-.18-.17-4.45c0-.11-.09-.18-.18-.19m2.76-1.18-.13,0-1.93,1-.11.11,0,.11.19,4.48,0,.13.09.07,2.09,1a.27.27,0,0,0,.31-.08l0-.15-.36-6.4a.28.28,0,0,0-.21-.23m-7.45,0a.21.21,0,0,0-.28.06l-.07.15-.35,6.4a.24.24,0,0,0,.18.25l.15,0,2.1-1,.1-.08,0-.12.18-4.48,0-.13-.1-.1Z"/><path class="cls-2" d="M86.54,1.32A20.84,20.84,0,0,1,99.39.75l1.8.57,73,27.38a20.86,20.86,0,0,1,13.47,17.81l.07,1.72v55.94a93.88,93.88,0,0,1-49.11,82.51l-2.78,1.44-35,17.5a15.66,15.66,0,0,1-12.49.64l-1.5-.64-35-17.5A93.84,93.84,0,0,1,.05,107.3l0-3.13V48.23A20.86,20.86,0,0,1,11.94,29.38l1.6-.68Zm43.13,67.11-48,47.95L63.28,97.94A10.43,10.43,0,1,0,48.53,112.7L73.6,137.77a11.49,11.49,0,0,0,16.23,0h0l54.59-54.6a10.43,10.43,0,0,0-14.49-15,3.19,3.19,0,0,0-.26.26"/></g></g></svg>