<svg xmlns="http://www.w3.org/2000/svg" viewBox="0 0 231.95 203.43"><defs><style>.cls-1,.cls-2{fill:#f15a24;}.cls-2{fill-rule:evenodd;}</style></defs><g id="Layer_2" data-name="Layer 2"><g id="Layer_1-2" data-name="Layer 1"><path class="cls-1" d="M0,.5H3L9.66,17V4.32a8.3,8.3,0,0,0-.22-2.53,1,1,0,0,0-.95-.69H8.11V.5h3.81v.6h-.39c-.46,0-.79.29-1,.85a9.39,9.39,0,0,0-.18,2.37V22.9h-.29L2.87,5.15V18.73a8.89,8.89,0,0,0,.21,2.54A1,1,0,0,0,4,22h.38v.6H.61V22H1c.47,0,.8-.28,1-.85a9.51,9.51,0,0,0,.17-2.37V3.4a9,9,0,0,0-.72-1.49,2.45,2.45,0,0,0-.72-.66A1.34,1.34,0,0,0,0,1.1V.5Z"/><path class="cls-1" d="M20.3,15.17H16.06l-.74,3.48a10.18,10.18,0,0,0-.27,1.92,1.7,1.7,0,0,0,.23.88,1.38,1.38,0,0,0,1,.5v.6H12.87V22a1.53,1.53,0,0,0,.88-.64,13.94,13.94,0,0,0,.92-3.17L18.52,0h.28l3.81,18.34a12.24,12.24,0,0,0,.83,2.87,1.43,1.43,0,0,0,1,.74v.6H20.17V22a1.1,1.1,0,0,0,.89-.44,1.73,1.73,0,0,0,.23-.91A12.16,12.16,0,0,0,21,18.34l-.66-3.17ZM20.07,14l-1.85-8.9L16.31,14Z"/><path class="cls-1" d="M30.35.5l.12,5.17h-.31a12,12,0,0,0-.24-1.95,3.27,3.27,0,0,0-.67-1.39,1.42,1.42,0,0,0-1.09-.45H26.61V18.73a8.74,8.74,0,0,0,.22,2.54,1,1,0,0,0,1,.68h.38v.6H23.51V22h.39c.47,0,.79-.28,1-.85a9.85,9.85,0,0,0,.18-2.37V1.88H23.75a2,2,0,0,0-1.09.23,2.38,2.38,0,0,0-.72,1.19,8.31,8.31,0,0,0-.35,2.37h-.31L21.41.5Z"/><path class="cls-1" d="M36.56,22v.6H31.87V22h.39a1,1,0,0,0,1-.8,9.46,9.46,0,0,0,.19-2.5V4.4a14.73,14.73,0,0,0-.1-2.21,1.68,1.68,0,0,0-.33-.7,1,1,0,0,0-.74-.39h-.39V.5h4.69v.6h-.4a1,1,0,0,0-1,.8A8.78,8.78,0,0,0,35,4.4V18.65a14.28,14.28,0,0,0,.11,2.21,1.48,1.48,0,0,0,.34.7,1,1,0,0,0,.73.39Z"/><path class="cls-1" d="M43.59,0C45,0,46.24,1.08,47.28,3.26a18.77,18.77,0,0,1,1.56,8.13,19.44,19.44,0,0,1-1.57,8.35q-1.58,3.32-3.81,3.31c-1.51,0-2.77-1.08-3.8-3.23a19.69,19.69,0,0,1-1.54-8.38A18.17,18.17,0,0,1,39.9,2.87C40.93,1,42.16,0,43.59,0Zm-.15,1.18c-1,0-1.77.73-2.36,2.2a22.2,22.2,0,0,0-1.11,8,23.43,23.43,0,0,0,1.15,8.31c.58,1.47,1.36,2.21,2.32,2.21s1.88-.81,2.55-2.43a21.31,21.31,0,0,0,1-7.64A24.06,24.06,0,0,0,45.89,3.4c-.59-1.48-1.41-2.22-2.45-2.22Z"/><path class="cls-1" d="M49.84.5h3L59.51,17V4.32a8.17,8.17,0,0,0-.23-2.53,1,1,0,0,0-.94-.69H58V.5h3.81v.6h-.39c-.47,0-.79.29-1,.85a9.57,9.57,0,0,0-.17,2.37V22.9h-.29L52.71,5.15V18.73a8.38,8.38,0,0,0,.22,2.54,1,1,0,0,0,.94.68h.39v.6H50.45V22h.38c.46,0,.8-.28,1-.85A9.33,9.33,0,0,0,52,18.73V3.4a11.07,11.07,0,0,0-.72-1.49,2.64,2.64,0,0,0-.73-.66,1.32,1.32,0,0,0-.71-.15V.5Z"/><path class="cls-1" d="M70.14,15.17H65.91l-.75,3.48a10.18,10.18,0,0,0-.27,1.92,1.61,1.61,0,0,0,.24.88,1.38,1.38,0,0,0,1,.5v.6H62.71V22a1.56,1.56,0,0,0,.89-.64,14.66,14.66,0,0,0,.91-3.17L68.36,0h.28l3.81,18.34a12.09,12.09,0,0,0,.84,2.87,1.4,1.4,0,0,0,1,.74v.6H70V22a1.1,1.1,0,0,0,.89-.44,1.73,1.73,0,0,0,.23-.91,12.16,12.16,0,0,0-.33-2.26l-.66-3.17ZM69.92,14l-1.86-8.9L66.16,14Z"/><path class="cls-1" d="M84.57,16.45l.27.12-.94,6H75.43V22h.41c.47,0,.8-.31,1-.91A9.8,9.8,0,0,0,77,18.63V4.4a8.62,8.62,0,0,0-.22-2.58,1,1,0,0,0-.94-.72h-.41V.5h5v.6a1.7,1.7,0,0,0-1.23.33,1.77,1.77,0,0,0-.48.86,14.66,14.66,0,0,0-.13,2.49V18.63a9.1,9.1,0,0,0,.13,1.85A1,1,0,0,0,79,21a2.7,2.7,0,0,0,1.26.16H81a3.11,3.11,0,0,0,1.77-.37,3.22,3.22,0,0,0,.93-1.33,15.19,15.19,0,0,0,.83-3Z"/><path class="cls-1" d="M94,10.73H99.1V4.42A14.87,14.87,0,0,0,99,2.19a1.58,1.58,0,0,0-.34-.7,1,1,0,0,0-.74-.39h-.38V.5h4.68v.6h-.39a1,1,0,0,0-.73.38,1.42,1.42,0,0,0-.36.78,16.27,16.27,0,0,0-.09,2.16V18.65a14.28,14.28,0,0,0,.11,2.21,1.47,1.47,0,0,0,.33.7,1,1,0,0,0,.74.39h.39v.6H97.54V22h.38a1,1,0,0,0,1-.8,8.88,8.88,0,0,0,.2-2.5V11.93H94v6.72a14.73,14.73,0,0,0,.1,2.21,1.58,1.58,0,0,0,.34.7,1,1,0,0,0,.74.39h.39v.6H90.9V22h.39a1,1,0,0,0,1-.8,9.3,9.3,0,0,0,.2-2.5V4.42a14.41,14.41,0,0,0-.11-2.23,1.47,1.47,0,0,0-.33-.7,1,1,0,0,0-.74-.39H90.9V.5h4.69v.6H95.2a1,1,0,0,0-.74.38,1.49,1.49,0,0,0-.35.78A16.27,16.27,0,0,0,94,4.42v6.31Z"/><path class="cls-1" d="M109.18,0c1.42,0,2.66,1.08,3.7,3.26a18.77,18.77,0,0,1,1.56,8.13,19.43,19.43,0,0,1-1.58,8.35q-1.58,3.32-3.81,3.31c-1.5,0-2.77-1.08-3.79-3.23a19.54,19.54,0,0,1-1.54-8.38,18.18,18.18,0,0,1,1.77-8.57C106.52,1,107.75,0,109.18,0ZM109,1.18c-1,0-1.76.73-2.36,2.2a22.46,22.46,0,0,0-1.1,8,23.7,23.7,0,0,0,1.14,8.31c.59,1.47,1.37,2.21,2.33,2.21s1.88-.81,2.55-2.43a21.35,21.35,0,0,0,1-7.64,24.06,24.06,0,0,0-1.11-8.43c-.59-1.48-1.4-2.22-2.45-2.22Z"/><path class="cls-1" d="M122.42,22.55,118.19,4V18.73a8.38,8.38,0,0,0,.22,2.54,1,1,0,0,0,.94.68h.39v.6h-3.81V22h.39c.46,0,.79-.28,1-.85a9.33,9.33,0,0,0,.18-2.37V4.32a9.6,9.6,0,0,0-.16-2.11,1.63,1.63,0,0,0-.42-.79,1.29,1.29,0,0,0-1-.32V.5H119l4,17.25L126.91.5H130v.6h-.38c-.47,0-.8.29-1,.85a9.39,9.39,0,0,0-.18,2.37V18.73a8.26,8.26,0,0,0,.23,2.54,1,1,0,0,0,.94.68H130v.6h-4.65V22h.39c.47,0,.79-.28,1-.85a9.33,9.33,0,0,0,.18-2.37V4l-4.22,18.55Z"/><path class="cls-1" d="M134.39,1.7v8.72h2.41a1.3,1.3,0,0,0,1.25-.57,6.31,6.31,0,0,0,.47-2.64h.29v7.68h-.29a15.5,15.5,0,0,0-.23-2.06,1.94,1.94,0,0,0-.48-.9,1.41,1.41,0,0,0-1-.32h-2.41v7.27a11.92,11.92,0,0,0,.07,1.78,1,1,0,0,0,.22.5.83.83,0,0,0,.62.19h1.85a2.58,2.58,0,0,0,1.35-.27,2.48,2.48,0,0,0,.81-1,16.72,16.72,0,0,0,1-3h.33l-.95,5.53h-8.43V22h.38a1,1,0,0,0,.74-.38,1.42,1.42,0,0,0,.35-.77,15.8,15.8,0,0,0,.09-2.14V4.34a9.09,9.09,0,0,0-.21-2.59,1,1,0,0,0-1-.65h-.38V.5h8.43l.12,4.83h-.31a13.84,13.84,0,0,0-.38-2.39,2.12,2.12,0,0,0-.61-1,1.94,1.94,0,0,0-1.13-.25Z"/><path class="cls-1" d="M154.71,11.3a3.32,3.32,0,0,1,1.7,1.56,7.83,7.83,0,0,1,.79,3.66,9.71,9.71,0,0,1-.52,3.14,4.55,4.55,0,0,1-1.42,2.2,4.49,4.49,0,0,1-2.75.69h-5.16V22h.41c.45,0,.78-.29,1-.88a9.83,9.83,0,0,0,.19-2.42V4.4a8.22,8.22,0,0,0-.24-2.58,1,1,0,0,0-.93-.72h-.41V.5h4.73a4.86,4.86,0,0,1,2.12.39A3.88,3.88,0,0,1,156.05,3a8.74,8.74,0,0,1,.64,3.43,8.41,8.41,0,0,1-.5,3,4,4,0,0,1-1.48,1.94Zm-4.23-.88a3.75,3.75,0,0,0,.68.17,5.58,5.58,0,0,0,.84.05,2.63,2.63,0,0,0,1.78-.51,3.12,3.12,0,0,0,.9-1.57A8,8,0,0,0,155,6.25,6.54,6.54,0,0,0,154.22,3a2.51,2.51,0,0,0-2.29-1.37,2.91,2.91,0,0,0-1.45.36v8.47Zm0,10.54a4.36,4.36,0,0,0,1.85.44,2.44,2.44,0,0,0,2.22-1.33,6.47,6.47,0,0,0,.77-3.28,8.48,8.48,0,0,0-.35-2.47,3.87,3.87,0,0,0-1.13-1.87,2.84,2.84,0,0,0-1.93-.68c-.34,0-.62,0-.86,0a1.88,1.88,0,0,0-.57.12v9Z"/><path class="cls-1" d="M166.56,1.1V.5h3.88v.6H170c-.43,0-.76.37-1,1.09a9.27,9.27,0,0,0-.17,2.34v9a30.68,30.68,0,0,1-.33,5.14,7.57,7.57,0,0,1-1.28,3.14,3.07,3.07,0,0,1-2.61,1.31,3.19,3.19,0,0,1-2.72-1.25,8,8,0,0,1-1.31-3.37,35.73,35.73,0,0,1-.26-5.43V4.4a7.85,7.85,0,0,0-.28-2.66,1,1,0,0,0-.9-.64h-.41V.5h4.73v.6h-.42c-.45,0-.78.29-1,.86a9,9,0,0,0-.2,2.44V14c0,.86,0,1.84.11,3a10.77,10.77,0,0,0,.43,2.58,4,4,0,0,0,.88,1.53,1.9,1.9,0,0,0,1.42.6,2.54,2.54,0,0,0,1.92-.94,5.17,5.17,0,0,0,1.16-2.42,27.13,27.13,0,0,0,.31-5V4.4a8.49,8.49,0,0,0-.23-2.58A1,1,0,0,0,167,1.1Z"/><path class="cls-1" d="M176.3,22v.6h-4.69V22H172a1,1,0,0,0,1-.8,9.3,9.3,0,0,0,.2-2.5V4.4a14.28,14.28,0,0,0-.11-2.21,1.47,1.47,0,0,0-.33-.7A1,1,0,0,0,172,1.1h-.39V.5h4.69v.6h-.4a1,1,0,0,0-1,.8,8.78,8.78,0,0,0-.21,2.5V18.65a14.28,14.28,0,0,0,.11,2.21,1.48,1.48,0,0,0,.34.7,1,1,0,0,0,.73.39Z"/><path class="cls-1" d="M186.76,16.45l.27.12-.94,6h-8.48V22H178c.46,0,.79-.31,1-.91a10.36,10.36,0,0,0,.17-2.41V4.4A8.49,8.49,0,0,0,179,1.82,1,1,0,0,0,178,1.1h-.42V.5h5v.6a1.67,1.67,0,0,0-1.22.33,1.63,1.63,0,0,0-.48.86,13.62,13.62,0,0,0-.13,2.49V18.63a8.41,8.41,0,0,0,.13,1.85,1,1,0,0,0,.29.51,2.73,2.73,0,0,0,1.26.16h.8a3.11,3.11,0,0,0,1.77-.37,3.22,3.22,0,0,0,.93-1.33,15.78,15.78,0,0,0,.84-3Z"/><path class="cls-1" d="M188.24,22.55V22h.41q.71,0,1-.9a9.63,9.63,0,0,0,.18-2.4V4.4a8.49,8.49,0,0,0-.23-2.58,1,1,0,0,0-.94-.72h-.41V.5h4.46a5.54,5.54,0,0,1,3.73,1.12,7.87,7.87,0,0,1,2.06,3.74,21.25,21.25,0,0,1,.78,6.05,18.68,18.68,0,0,1-1.39,7.69q-1.56,3.45-4.74,3.45ZM191.37,21a4.43,4.43,0,0,0,1.72.45c1.24,0,2.28-.88,3.1-2.65a17.17,17.17,0,0,0,1.24-7.19,17.16,17.16,0,0,0-1.24-7.2c-.82-1.76-1.88-2.63-3.17-2.63a3.66,3.66,0,0,0-1.65.47V21Z"/><path class="cls-1" d="M203.93,1.7v8.72h2.41a1.29,1.29,0,0,0,1.25-.57,6.15,6.15,0,0,0,.47-2.64h.3v7.68h-.3a13.89,13.89,0,0,0-.23-2.06,1.84,1.84,0,0,0-.47-.9,1.43,1.43,0,0,0-1-.32h-2.41v7.27a13.62,13.62,0,0,0,.07,1.78,1.15,1.15,0,0,0,.22.5.83.83,0,0,0,.62.19h1.86a2.56,2.56,0,0,0,1.34-.27,2.48,2.48,0,0,0,.81-1,16.6,16.6,0,0,0,1-3h.32l-.94,5.53h-8.44V22h.39a1,1,0,0,0,.73-.38,1.42,1.42,0,0,0,.35-.77,15.8,15.8,0,0,0,.09-2.14V4.34a9.09,9.09,0,0,0-.21-2.59,1,1,0,0,0-1-.65h-.39V.5h8.44l.12,4.83h-.32a14.12,14.12,0,0,0-.37-2.39,2.12,2.12,0,0,0-.61-1,2,2,0,0,0-1.14-.25Z"/><path class="cls-1" d="M222.33,22.55h-2.92L215.7,12.24l-.67,0h-.22l-.25,0v6.41a8.53,8.53,0,0,0,.22,2.58,1,1,0,0,0,.92.72h.43v.6h-4.69V22h.41c.47,0,.8-.31,1-.91a9.42,9.42,0,0,0,.18-2.39V4.4a8.4,8.4,0,0,0-.23-2.58,1,1,0,0,0-.94-.72h-.41V.5h4A4.92,4.92,0,0,1,218,1a3.86,3.86,0,0,1,1.41,1.88A8.55,8.55,0,0,1,220,6.18a8.72,8.72,0,0,1-.66,3.53,4,4,0,0,1-2,2.11l2.26,6.32a11.52,11.52,0,0,0,1.33,2.9,2.46,2.46,0,0,0,1.45.91v.6Zm-7.77-11.33H215a2.57,2.57,0,0,0,2.36-1.36,6.84,6.84,0,0,0,.8-3.48A7.53,7.53,0,0,0,217.52,3a1.91,1.91,0,0,0-1.7-1.29,3.65,3.65,0,0,0-1.26.31v9.17Z"/><path class="cls-1" d="M230.35,0V7.63h-.3a18.06,18.06,0,0,0-.52-3.5,5.07,5.07,0,0,0-1.08-2.07A1.94,1.94,0,0,0,227,1.3a1.6,1.6,0,0,0-1.39,1,4.88,4.88,0,0,0-.55,2.35,4.75,4.75,0,0,0,.35,1.84,12.61,12.61,0,0,0,2.38,3.25,18.9,18.9,0,0,1,2.09,2.55,6.79,6.79,0,0,1,.87,2.08,10.47,10.47,0,0,1,.3,2.52,9.12,9.12,0,0,1-1,4.32,2.84,2.84,0,0,1-2.48,1.81,2.66,2.66,0,0,1-.9-.15,5.9,5.9,0,0,1-1-.58,2.82,2.82,0,0,0-1-.52.36.36,0,0,0-.32.24,3.85,3.85,0,0,0-.17,1h-.3V15.5h.3a18.79,18.79,0,0,0,.57,3.55,5,5,0,0,0,1.08,2,2.19,2.19,0,0,0,1.6.77,1.76,1.76,0,0,0,1.6-1.07,5.2,5.2,0,0,0,.58-2.53,6.29,6.29,0,0,0-.22-1.65,5.2,5.2,0,0,0-.69-1.54A22.93,22.93,0,0,0,227,12.91a21.9,21.9,0,0,1-2-2.52,8.08,8.08,0,0,1-.9-2.08,9.87,9.87,0,0,1-.3-2.51,8.72,8.72,0,0,1,.9-4.09A2.66,2.66,0,0,1,227,0a2.85,2.85,0,0,1,1.85.86c.3.27.52.41.64.41a.4.4,0,0,0,.34-.25,3.5,3.5,0,0,0,.22-1Z"/><path class="cls-1" d="M13.19,203H9.94l-4.12-8.47-.74,0H4.83l-.28,0v5.26a5.47,5.47,0,0,0,.25,2.13,1.12,1.12,0,0,0,1,.59H6.3V203H1.09v-.49h.46a1.13,1.13,0,0,0,1.1-.75,6,6,0,0,0,.19-2V188.08A5.4,5.4,0,0,0,2.59,186a1.14,1.14,0,0,0-1-.59H1.09v-.49H5.52a7.32,7.32,0,0,1,2.86.42,3.52,3.52,0,0,1,1.56,1.55,5.43,5.43,0,0,1,.64,2.69,5.59,5.59,0,0,1-.73,2.91,4,4,0,0,1-2.27,1.73l2.51,5.2a9.07,9.07,0,0,0,1.48,2.38,3,3,0,0,0,1.62.75V203Zm-8.64-9.31h.5a3.14,3.14,0,0,0,2.63-1.12,4.48,4.48,0,0,0,.88-2.86A4.89,4.89,0,0,0,7.85,187,2.2,2.2,0,0,0,6,185.89a5.46,5.46,0,0,0-1.41.26v7.54Z"/><path class="cls-1" d="M17.51,185.87V193h2.67a1.67,1.67,0,0,0,1.39-.47,4,4,0,0,0,.52-2.16h.33v6.31h-.33a10,10,0,0,0-.25-1.7,1.56,1.56,0,0,0-.53-.74,2,2,0,0,0-1.13-.26H17.51v6a8.21,8.21,0,0,0,.07,1.47.82.82,0,0,0,.25.41,1.12,1.12,0,0,0,.68.15h2.06a3.91,3.91,0,0,0,1.5-.21A2.33,2.33,0,0,0,23,201a11.14,11.14,0,0,0,1.13-2.5h.36l-1,4.54H14.05v-.49h.43a1.33,1.33,0,0,0,.81-.31,1.1,1.1,0,0,0,.39-.64,9.29,9.29,0,0,0,.1-1.75V188a5.48,5.48,0,0,0-.23-2.12,1.14,1.14,0,0,0-1.07-.54h-.43v-.49h9.37l.13,4H23.2a8.38,8.38,0,0,0-.42-2,1.69,1.69,0,0,0-.67-.81,2.88,2.88,0,0,0-1.27-.2Z"/><path class="cls-1" d="M36.8,184.47l.31,5.71H36.8A9.49,9.49,0,0,0,35.57,187a3.27,3.27,0,0,0-2.79-1.56c-1.55,0-2.72.91-3.53,2.74a13.54,13.54,0,0,0-1,5.5,15.74,15.74,0,0,0,.67,4.74,7,7,0,0,0,1.76,3.13,3.3,3.3,0,0,0,2.24,1,3.43,3.43,0,0,0,1.3-.26,4.69,4.69,0,0,0,1.21-.74v-5.25a7.21,7.21,0,0,0-.14-1.78,1.3,1.3,0,0,0-.43-.64,1.75,1.75,0,0,0-1-.22v-.51h4.71v.51h-.22a1,1,0,0,0-1,.7,6.71,6.71,0,0,0-.18,1.94v5.55a7.92,7.92,0,0,1-2,1.22,6.1,6.1,0,0,1-2.23.39,5.8,5.8,0,0,1-5.35-3.37,12,12,0,0,1-1.38-5.83,13.66,13.66,0,0,1,.78-4.59,9.14,9.14,0,0,1,2.51-4,4.62,4.62,0,0,1,3.15-1.16,4.17,4.17,0,0,1,1.21.16,8.56,8.56,0,0,1,1.54.7,1.8,1.8,0,0,0,.67.28c.11,0,.21-.08.29-.23a2.55,2.55,0,0,0,.15-.91Z"/><path class="cls-1" d="M45.1,202.51V203H39.89v-.49h.43a1.14,1.14,0,0,0,1.09-.66,5.64,5.64,0,0,0,.22-2.06V188.08a8.52,8.52,0,0,0-.12-1.81,1.14,1.14,0,0,0-.36-.58,1.33,1.33,0,0,0-.83-.32h-.43v-.49H45.1v.49h-.44a1.12,1.12,0,0,0-1.08.66,5.53,5.53,0,0,0-.23,2.05v11.71a8.57,8.57,0,0,0,.12,1.82,1.07,1.07,0,0,0,.37.57,1.25,1.25,0,0,0,.82.33Z"/><path class="cls-1" d="M54.61,184.47v6.26h-.33a10.75,10.75,0,0,0-.58-2.87,4,4,0,0,0-1.19-1.7,2.48,2.48,0,0,0-1.59-.63,1.87,1.87,0,0,0-1.55.85,3.27,3.27,0,0,0-.6,1.93,3,3,0,0,0,.38,1.51,11.08,11.08,0,0,0,2.64,2.68,17.27,17.27,0,0,1,2.33,2.09,5,5,0,0,1,1,1.71,6.3,6.3,0,0,1,.34,2.08,5.92,5.92,0,0,1-1.07,3.54,3.27,3.27,0,0,1-2.76,1.5,3.56,3.56,0,0,1-1-.13,7.1,7.1,0,0,1-1.15-.48,3.77,3.77,0,0,0-1.11-.42.39.39,0,0,0-.35.2,2,2,0,0,0-.19.83h-.33V197.2h.33a11.37,11.37,0,0,0,.63,2.92,3.84,3.84,0,0,0,1.2,1.61,2.78,2.78,0,0,0,1.78.64,2.07,2.07,0,0,0,1.77-.88,3.43,3.43,0,0,0,.65-2.08,4,4,0,0,0-.24-1.35,4.08,4.08,0,0,0-.77-1.27,21.48,21.48,0,0,0-1.91-1.71A19.52,19.52,0,0,1,48.68,193a5.69,5.69,0,0,1-1-1.71,6,6,0,0,1-.34-2.07,5.6,5.6,0,0,1,1-3.35,3,3,0,0,1,2.56-1.41,3.79,3.79,0,0,1,2.05.7,1.61,1.61,0,0,0,.71.34.46.46,0,0,0,.38-.21,2.12,2.12,0,0,0,.24-.83Z"/><path class="cls-1" d="M67.67,184.88l.14,4.25h-.34a7.89,7.89,0,0,0-.27-1.61,2.66,2.66,0,0,0-.74-1.14,1.93,1.93,0,0,0-1.22-.37H63.53v13.85a5.36,5.36,0,0,0,.24,2.09,1.16,1.16,0,0,0,1,.56h.42V203H60.09v-.49h.43a1.11,1.11,0,0,0,1.09-.7,5.82,5.82,0,0,0,.2-1.95V186H60.35a2.88,2.88,0,0,0-1.21.19,2,2,0,0,0-.8,1,5.6,5.6,0,0,0-.4,1.95H57.6l.15-4.25Z"/><path class="cls-1" d="M81.32,203H78.07L74,194.53l-.74,0H73l-.28,0v5.26a5.47,5.47,0,0,0,.25,2.13,1.12,1.12,0,0,0,1,.59h.48V203H69.22v-.49h.46a1.13,1.13,0,0,0,1.1-.75,6,6,0,0,0,.19-2V188.08a5.4,5.4,0,0,0-.25-2.12,1.14,1.14,0,0,0-1-.59h-.46v-.49h4.43a7.32,7.32,0,0,1,2.86.42,3.52,3.52,0,0,1,1.56,1.55,5.43,5.43,0,0,1,.64,2.69,5.59,5.59,0,0,1-.73,2.91,4,4,0,0,1-2.27,1.73l2.51,5.2a9.07,9.07,0,0,0,1.48,2.38,3,3,0,0,0,1.62.75V203Zm-8.64-9.31h.5a3.14,3.14,0,0,0,2.63-1.12,4.48,4.48,0,0,0,.88-2.86A4.89,4.89,0,0,0,76,187a2.2,2.2,0,0,0-1.89-1.07,5.46,5.46,0,0,0-1.41.26v7.54Z"/><path class="cls-1" d="M90.2,196.93H85.49l-.82,2.86a6.13,6.13,0,0,0-.31,1.58,1.08,1.08,0,0,0,.27.73,1.76,1.76,0,0,0,1.14.41V203H81.94v-.49a1.74,1.74,0,0,0,1-.53,9.61,9.61,0,0,0,1-2.6l4.28-14.91h.31l4.23,15.07a8,8,0,0,0,.93,2.36,1.61,1.61,0,0,0,1.16.61V203H90.06v-.49a1.38,1.38,0,0,0,1-.37,1.11,1.11,0,0,0,.26-.74,7.85,7.85,0,0,0-.37-1.86l-.73-2.61Zm-.25-1-2.06-7.32-2.12,7.32Z"/><path class="cls-1" d="M101.72,184.88l.14,4.25h-.34a7.89,7.89,0,0,0-.27-1.61,2.66,2.66,0,0,0-.74-1.14,1.93,1.93,0,0,0-1.22-.37H97.58v13.85a5.36,5.36,0,0,0,.24,2.09,1.16,1.16,0,0,0,1.05.56h.42V203H94.14v-.49h.43a1.11,1.11,0,0,0,1.09-.7,5.82,5.82,0,0,0,.2-1.95V186H94.4a2.88,2.88,0,0,0-1.21.19,2,2,0,0,0-.8,1,5.6,5.6,0,0,0-.4,1.95h-.34l.15-4.25Z"/><path class="cls-1" d="M108.63,202.51V203h-5.22v-.49h.43a1.15,1.15,0,0,0,1.1-.66,6,6,0,0,0,.21-2.06V188.08a9.56,9.56,0,0,0-.11-1.81,1.16,1.16,0,0,0-.37-.58,1.31,1.31,0,0,0-.83-.32h-.43v-.49h5.22v.49h-.45a1.14,1.14,0,0,0-1.08.66,5.53,5.53,0,0,0-.23,2.05v11.71a8.57,8.57,0,0,0,.12,1.82,1.09,1.09,0,0,0,.38.57,1.22,1.22,0,0,0,.81.33Z"/><path class="cls-1" d="M116.43,184.47q2.37,0,4.1,2.67a12.06,12.06,0,0,1,1.74,6.69,12.44,12.44,0,0,1-1.75,6.86q-1.76,2.73-4.23,2.73a5,5,0,0,1-4.22-2.66,12.56,12.56,0,0,1-1.71-6.89,11.75,11.75,0,0,1,2-7,5,5,0,0,1,4.1-2.36Zm-.17,1a3,3,0,0,0-2.62,1.8,14,14,0,0,0-1.23,6.58,14.76,14.76,0,0,0,1.28,6.83,2.91,2.91,0,0,0,2.58,1.82,3.26,3.26,0,0,0,2.83-2c.74-1.32,1.12-3.42,1.12-6.28q0-4.65-1.23-6.93a3,3,0,0,0-2.73-1.82Z"/><path class="cls-1" d="M123.38,184.88h3.3l7.43,13.59V188a5,5,0,0,0-.25-2.08,1.12,1.12,0,0,0-1.05-.57h-.42v-.49h4.23v.49h-.43a1.12,1.12,0,0,0-1.09.7,5.82,5.82,0,0,0-.2,2v15.27h-.32l-8-14.59v11.16a5.36,5.36,0,0,0,.24,2.09,1.16,1.16,0,0,0,1,.56h.43V203h-4.23v-.49h.42a1.13,1.13,0,0,0,1.11-.7,5.92,5.92,0,0,0,.19-1.95v-12.6A7.65,7.65,0,0,0,125,186a2.6,2.6,0,0,0-.8-.55,2.22,2.22,0,0,0-.79-.12v-.49Z"/><path class="cls-1" d="M154.45,184.47l.28,6.15h-.28a9.08,9.08,0,0,0-1.58-4,3.09,3.09,0,0,0-4.66-.3,6.12,6.12,0,0,0-1.54,2.92,19,19,0,0,0-.56,5,15,15,0,0,0,.53,4.26,5.88,5.88,0,0,0,1.59,2.77,3.5,3.5,0,0,0,2.42,1,3.13,3.13,0,0,0,2.09-.76,9.18,9.18,0,0,0,2-3l.28.26a9.17,9.17,0,0,1-2.13,3.54,4.15,4.15,0,0,1-2.9,1.13q-3,0-4.68-3.35a13,13,0,0,1-1.24-5.85,14.8,14.8,0,0,1,.82-5,8.33,8.33,0,0,1,2.24-3.52,4.68,4.68,0,0,1,3.13-1.24,4.35,4.35,0,0,1,2.6.95,1.13,1.13,0,0,0,.54.3.53.53,0,0,0,.42-.25,2.45,2.45,0,0,0,.33-1Z"/><path class="cls-1" d="M163,184.47c1.58,0,2.94.89,4.1,2.67a12.06,12.06,0,0,1,1.74,6.69,12.52,12.52,0,0,1-1.75,6.86q-1.75,2.73-4.24,2.73a4.94,4.94,0,0,1-4.21-2.66,12.56,12.56,0,0,1-1.71-6.89,11.75,11.75,0,0,1,2-7,5,5,0,0,1,4.1-2.36Zm-.17,1a3,3,0,0,0-2.62,1.8,14,14,0,0,0-1.23,6.58,14.91,14.91,0,0,0,1.27,6.83,2.94,2.94,0,0,0,2.59,1.82,3.27,3.27,0,0,0,2.83-2c.74-1.32,1.11-3.42,1.11-6.28q0-4.65-1.23-6.93a3,3,0,0,0-2.72-1.82Z"/><path class="cls-1" d="M179.87,185.37v-.49h4.31v.49h-.46c-.48,0-.84.3-1.1.9a5.78,5.78,0,0,0-.19,1.92v7.35a19.14,19.14,0,0,1-.36,4.23,5.32,5.32,0,0,1-1.43,2.58,3.87,3.87,0,0,1-2.89,1.08,4.06,4.06,0,0,1-3-1,5.71,5.71,0,0,1-1.46-2.77,22.59,22.59,0,0,1-.29-4.46v-7.09a4.94,4.94,0,0,0-.31-2.19,1.09,1.09,0,0,0-1-.52h-.46v-.49h5.26v.49H176a1.12,1.12,0,0,0-1.08.71,5.68,5.68,0,0,0-.22,2V196c0,.7,0,1.51.13,2.41a7,7,0,0,0,.47,2.13,3.28,3.28,0,0,0,1,1.25,2.47,2.47,0,0,0,1.58.5,3.3,3.3,0,0,0,2.13-.77,3.89,3.89,0,0,0,1.29-2,16.9,16.9,0,0,0,.34-4.1v-7.34a5.28,5.28,0,0,0-.25-2.12,1.14,1.14,0,0,0-1-.59Z"/><path class="cls-1" d="M184.78,184.88h3.3l7.43,13.59V188a5.22,5.22,0,0,0-.25-2.08,1.12,1.12,0,0,0-1-.57h-.42v-.49H198v.49h-.43a1.11,1.11,0,0,0-1.09.7,5.56,5.56,0,0,0-.2,2v15.27H196l-8-14.59v11.16a5.36,5.36,0,0,0,.24,2.09,1.16,1.16,0,0,0,1.05.56h.43V203h-4.23v-.49h.42a1.11,1.11,0,0,0,1.1-.7,5.56,5.56,0,0,0,.2-1.95v-12.6a7.65,7.65,0,0,0-.8-1.22,2.72,2.72,0,0,0-.8-.55,2.22,2.22,0,0,0-.79-.12v-.49Z"/><path class="cls-1" d="M210.34,184.47l.28,6.15h-.28a9,9,0,0,0-1.58-4,3.09,3.09,0,0,0-4.66-.3,6.12,6.12,0,0,0-1.54,2.92,19,19,0,0,0-.56,5,15,15,0,0,0,.53,4.26,5.88,5.88,0,0,0,1.59,2.77,3.5,3.5,0,0,0,2.42,1,3.13,3.13,0,0,0,2.09-.76,9.18,9.18,0,0,0,2-3l.28.26a9.17,9.17,0,0,1-2.13,3.54,4.15,4.15,0,0,1-2.9,1.13q-3,0-4.68-3.35a13,13,0,0,1-1.24-5.85,14.8,14.8,0,0,1,.82-5,8.33,8.33,0,0,1,2.24-3.52,4.68,4.68,0,0,1,3.13-1.24,4.35,4.35,0,0,1,2.6.95,1.13,1.13,0,0,0,.54.3.53.53,0,0,0,.42-.25,2.45,2.45,0,0,0,.33-1Z"/><path class="cls-1" d="M217.85,202.51V203h-5.21v-.49h.43a1.14,1.14,0,0,0,1.09-.66,5.64,5.64,0,0,0,.22-2.06V188.08a8.52,8.52,0,0,0-.12-1.81,1.14,1.14,0,0,0-.36-.58,1.33,1.33,0,0,0-.83-.32h-.43v-.49h5.21v.49h-.44a1.12,1.12,0,0,0-1.08.66,5.53,5.53,0,0,0-.23,2.05v11.71a8.57,8.57,0,0,0,.12,1.82,1.07,1.07,0,0,0,.37.57,1.25,1.25,0,0,0,.82.33Z"/><path class="cls-1" d="M229.47,198l.29.09-1,4.92h-9.41v-.49h.46a1.13,1.13,0,0,0,1.1-.75,6.58,6.58,0,0,0,.18-2v-11.7a5.28,5.28,0,0,0-.25-2.12,1.12,1.12,0,0,0-1-.59h-.46v-.49h5.5v.49a2.43,2.43,0,0,0-1.36.27,1.43,1.43,0,0,0-.53.71,8.92,8.92,0,0,0-.14,2v11.39a5.58,5.58,0,0,0,.14,1.52.78.78,0,0,0,.33.42,4,4,0,0,0,1.4.13h.89a4.52,4.52,0,0,0,2-.3,2.87,2.87,0,0,0,1-1.09,10.68,10.68,0,0,0,.94-2.47Z"/><path class="cls-2" d="M.75,176.6H231.46v1.24H.75V176.6ZM.75,29H231.46v1.24H.75V29Zm159,66.8L160,47.29c6.55-.75,8.23,1.08,8.23,9.19V84.11c0,5.48-.83,11.64-8.42,11.64ZM209,175.34c-25.26-1.6-16.73-14.27-18-36.75V52c0-17.26,5.69-18.52,11.92-19.43,10.2-1.49,19,0,29.09,2.08l-.57,49.13H217V51.2c.35-8.47-10-9.25-10.44-.84V154.78c-.28,12.48,9.24,8.24,8.63,0V118.87H231.3v41.5c0,11.73-7.42,15.92-22.35,15ZM47,173.54l.94-9.39.19-122-1-8.38H65.29l-.88,8.38V92.57h8.25V42.15l-1-8.38H89.86L89,42.15l-.35,122,0,9.46L71,173.29l1.26-9.14V105.49h-8v58.66l.68,9.39Zm47,.32,1.25-9.71V42.67l-.94-8.9h32.34c7.63,1.39,9.58,7.55,9.58,14.51V84.66c0,5.67-2.29,8.33-6.93,13,3.19,3.59,7.17,8.34,7.17,14.34v46.46c-.44,5-1.06,10.71-5.28,14-1.45.38-2.84.82-4.22,1.26l-33,.19Zm48.41,0,.63-9.71.12-121.48-.88-8.51c10.33-.06,20.71-.95,31-.06,9.51.82,11,6.68,11,15.31V84.79c0,7.57-3.25,13.18-10,16.21v.47c6.36,2.44,9.57,4.9,9.57,13.79v48.89l1.45,9.71h-18c0-2.56,0-7.16.06-9.71.11-15.64.22-29.2.39-44.8-.7-6.17-.89-11.74-8.13-11.23v55.76l1.07,10ZM.7,173.54l.4-12.17L1.77,46.51.26,33.77H19l14.24,87.16V41.36l-.57-7.59h9.7l-.55,7.59L41,173.54l-16.51-.25-.19-4.78c-3.63-21.6-6.69-39.91-9.45-59.87L10.16,80.92l-.4,80.45,1,12.17Zm110.59-12q.09-27.88.31-55.76c5.07-.34,8-.57,8,4.72v42.78c0,4.68-1.31,8.78-8.31,8.26Zm.31-67.36.19-48.46c6.17,0,8.23,0,8.23,6V86.08c0,5.48-.83,8.13-8.42,8.13ZM222.22,78.05V71.18h2.27a2.19,2.19,0,0,1,1,.19,1.28,1.28,0,0,1,.57.65,2.51,2.51,0,0,1,.21,1,2.07,2.07,0,0,1-.35,1.23,1.63,1.63,0,0,1-1.09.64,1.64,1.64,0,0,1,.41.34,4.3,4.3,0,0,1,.56.91l.89,1.87h-.85l-.67-1.43c-.2-.41-.37-.73-.49-.94a1.79,1.79,0,0,0-.35-.46.93.93,0,0,0-.31-.19,1.58,1.58,0,0,0-.37,0h-.79v3Zm.68-3.84h1.46a1.73,1.73,0,0,0,.72-.12.86.86,0,0,0,.4-.42,1.4,1.4,0,0,0,.14-.61,1.2,1.2,0,0,0-.27-.81,1,1,0,0,0-.83-.31H222.9v2.27Zm1.3-5.48a5.89,5.89,0,1,1-5.89,5.89,5.9,5.9,0,0,1,5.89-5.89Zm0,1.1a4.79,4.79,0,1,1-4.79,4.79,4.79,4.79,0,0,1,4.79-4.79Z"/></g></g></svg>