<svg xmlns="http://www.w3.org/2000/svg" viewBox="0 0 268.08 157.5"><defs><style>.cls-1{fill:#f15a24;}</style></defs><g id="Layer_2" data-name="Layer 2"><g id="Layer_1-2" data-name="Layer 1"><path class="cls-1" d="M252.56,62.55c2.27,2.07,4.49,3.88,6.45,5.93,7.11,7.46,9.37,16.53,9,26.61-.56,17.43-14.19,33.66-33.33,38.25a95.91,95.91,0,0,1-20.39,2.58c-18,.35-35.93.12-53.89.12H149.73c-.09-1.37-.2-2.3-.2-3.24,0-22.25,0-44.49.07-66.74a7,7,0,0,1,1.84-4.39q28.83-29.54,57.81-58.91a5.8,5.8,0,0,1,4.92-2c10.29.68,20.45,1.55,29.75,6.82C264.46,19.2,266.27,45,254.51,59.92,253.91,60.69,253.35,61.49,252.56,62.55Zm-67.73,45.57a11.8,11.8,0,0,0,1.44.31c9.91.14,19.82.41,29.72.33a24.52,24.52,0,0,0,13.16-4c5-3.22,6.67-7.91,5.79-13.64-.84-5.47-4.27-8.42-9.48-9.58a16.85,16.85,0,0,0-3.42-.57c-11.78-.15-23.57-.23-35.35-.37-1.66,0-1.87.87-1.87,2.2,0,5,0,10,0,15ZM185,30.37c0,7.34,0,14.21,0,21.08,0,1.84,1.32,1.57,2.45,1.58,6.08,0,12.16.2,18.23,0a116.75,116.75,0,0,0,16-1.13c4.89-.81,7.6-4.38,8-8.88A9.42,9.42,0,0,0,223.21,33a30.45,30.45,0,0,0-9.29-2.3c-6.77-.39-13.57-.23-20.36-.27C190.8,30.36,188.05,30.37,185,30.37Z"/><path class="cls-1" d="M62.38,80.54c-7.15,0-14.28.06-21.41,0s-5.53-.62-5.64,5.29c-.1,5.54.07,11.08-.06,16.62,0,2.08.56,2.8,2.71,2.75,5.81-.14,11.62,0,17.43,0,.85,0,1.7.08,3,.15L37.54,128.59,38,129q7.5-6.18,15-12.37c4.13-3.42,8.23-6.88,12.36-10.3,2.57-2.15,4.34-1.72,5.68,1.27C76,118.7,84.67,126,95,131.68c2.38,1.31,4.87,2.44,7.91,3.95H.94V0H104.58l.2.4c-.79.42-1.57.88-2.39,1.25C89.27,7.55,78.17,15.74,71.28,28.8a3.72,3.72,0,0,1-2.82,1.31c-9.92.16-19.84.28-29.76.21-2.65,0-3.6.61-3.46,3.42.25,4.9.15,9.83,0,14.74-.05,1.91.66,2.45,2.48,2.43,7.15-.08,14.3,0,21.46,0h3.16Z"/><path class="cls-1" d="M69,92.12c-.67-4.55-1.48-9.09-2-13.67-1.08-9.79-1.4-19.57.41-29.34,2.36-12.74,9.13-22.86,18.2-31.75C96.34,6.81,109.12,1.13,124.18.67,130.34.48,136.5.38,142.66.25c.87,0,1.74.09,2.84.15V28c-2.8-.34-5.5-.78-8.23-1-19.54-1.47-33.74,9.07-37.24,28a16.16,16.16,0,0,1-4.2,8.51q-12.57,13.74-25,27.56a9.37,9.37,0,0,0-.86,1.35Z"/><path class="cls-1" d="M99.28,79.12c4.06,26.25,24.3,35,46.09,27.1,0,3.13,0,6.2,0,9.27q0,8.7.05,17.42c0,1.29,0,2.63-1.85,2.59-10.16-.23-20.44.39-30.47-.92C97.21,132.52,85.4,123.42,76.93,110a51.78,51.78,0,0,1-3.71-7.41,2.71,2.71,0,0,1,.43-2.5c8.25-7,16.58-13.84,24.91-20.72A2,2,0,0,1,99.28,79.12Z"/><path class="cls-1" d="M114.56,95.35c-4.86-6-9.42-11.62-13.94-17.25a2.07,2.07,0,0,1-.48-1.21c0-5.15,0-10.29,0-15.44l.93-.33c2.7,2.38,5.4,4.75,8.09,7.14,1.73,1.54,3.49,3.07,5.17,4.67a2.33,2.33,0,0,0,3.53.1Q138.14,56.8,158.47,40.6c13.92-11.07,27.85-22.11,42.17-32.75Z"/><path class="cls-1" d="M0,157.32V147H7.68v1.75H2.09V151H7.3v1.75H2.09v2.82H7.88v1.74Z"/><path class="cls-1" d="M9.71,157.32V147h2.1v8.54H17v1.74Z"/><path class="cls-1" d="M18.5,157.32V147h7.69v1.75h-5.6V151H25.8v1.75H20.59v2.82h5.79v1.74Z"/><path class="cls-1" d="M34.79,153.51l2,.65a4.57,4.57,0,0,1-1.55,2.52,4.52,4.52,0,0,1-2.76.82,4.47,4.47,0,0,1-3.39-1.41,5.39,5.39,0,0,1-1.33-3.86,5.69,5.69,0,0,1,1.34-4,4.59,4.59,0,0,1,3.51-1.43,4.31,4.31,0,0,1,3.09,1.13,4.09,4.09,0,0,1,1.06,1.9l-2.07.5A2.16,2.16,0,0,0,34,149a2.21,2.21,0,0,0-1.42-.47,2.38,2.38,0,0,0-1.87.83,4.09,4.09,0,0,0-.71,2.68,4.37,4.37,0,0,0,.7,2.8,2.32,2.32,0,0,0,1.84.83,2.12,2.12,0,0,0,1.44-.53A3.11,3.11,0,0,0,34.79,153.51Z"/><path class="cls-1" d="M41,157.32v-8.61H37.87V147h8.24v1.75H43v8.61Z"/><path class="cls-1" d="M47.46,157.32V147h4.41a7.38,7.38,0,0,1,2.41.28,2.34,2.34,0,0,1,1.21,1,3,3,0,0,1,.45,1.63,2.77,2.77,0,0,1-.69,1.93,3.25,3.25,0,0,1-2,1,4.69,4.69,0,0,1,1.13.87,11.59,11.59,0,0,1,1.19,1.68l1.26,2h-2.5l-1.51-2.25a14.32,14.32,0,0,0-1.11-1.53,1.51,1.51,0,0,0-.63-.43A3.39,3.39,0,0,0,50,153h-.42v4.32Zm2.1-6H51.1a7.71,7.71,0,0,0,1.89-.13,1.1,1.1,0,0,0,.58-.43,1.38,1.38,0,0,0,.21-.78,1.29,1.29,0,0,0-.27-.85,1.28,1.28,0,0,0-.79-.4,14.55,14.55,0,0,0-1.53,0H49.56Z"/><path class="cls-1" d="M57.85,157.32V147h2.09v10.36Z"/><path class="cls-1" d="M68.57,153.51l2,.65A4.58,4.58,0,0,1,69,156.68a4.88,4.88,0,0,1-6.14-.59,5.39,5.39,0,0,1-1.33-3.86,5.69,5.69,0,0,1,1.33-4,4.61,4.61,0,0,1,3.52-1.43,4.32,4.32,0,0,1,3.09,1.13,4.09,4.09,0,0,1,1.06,1.9l-2.07.5a2.16,2.16,0,0,0-2.19-1.74,2.36,2.36,0,0,0-1.87.83,4,4,0,0,0-.72,2.68,4.36,4.36,0,0,0,.71,2.8,2.3,2.3,0,0,0,1.84.83,2.09,2.09,0,0,0,1.43-.53A3.11,3.11,0,0,0,68.57,153.51Z"/><path class="cls-1" d="M81.74,157.32H79.46l-.9-2.35H74.41l-.85,2.35H71.34l4-10.36h2.22Zm-3.86-4.1-1.42-3.84-1.4,3.84Z"/><path class="cls-1" d="M82.9,157.32V147H85v8.54h5.2v1.74Z"/><path class="cls-1" d="M102.08,153.51l2,.65a4.57,4.57,0,0,1-1.55,2.52,4.9,4.9,0,0,1-6.15-.59,5.43,5.43,0,0,1-1.33-3.86,5.69,5.69,0,0,1,1.34-4,4.59,4.59,0,0,1,3.51-1.43,4.31,4.31,0,0,1,3.09,1.13,4,4,0,0,1,1.06,1.9l-2.07.5a2.2,2.2,0,0,0-.76-1.27,2.23,2.23,0,0,0-1.42-.47,2.36,2.36,0,0,0-1.87.83,4,4,0,0,0-.72,2.68,4.36,4.36,0,0,0,.71,2.8,2.3,2.3,0,0,0,1.84.83,2.11,2.11,0,0,0,1.43-.53A3,3,0,0,0,102.08,153.51Z"/><path class="cls-1" d="M105.48,152.2a6.47,6.47,0,0,1,.48-2.65,4.73,4.73,0,0,1,1-1.43,4.21,4.21,0,0,1,1.34-.93,5.77,5.77,0,0,1,2.24-.41,4.9,4.9,0,0,1,3.66,1.42,6.33,6.33,0,0,1,0,7.88,4.81,4.81,0,0,1-3.65,1.42,4.87,4.87,0,0,1-3.67-1.41A5.37,5.37,0,0,1,105.48,152.2Zm2.16-.07a3.88,3.88,0,0,0,.81,2.67,2.8,2.8,0,0,0,4.12,0,3.94,3.94,0,0,0,.8-2.71,3.88,3.88,0,0,0-.78-2.65,2.62,2.62,0,0,0-2.07-.88,2.67,2.67,0,0,0-2.09.89A3.89,3.89,0,0,0,107.64,152.13Z"/><path class="cls-1" d="M117.19,157.32V147h2l4.24,6.92V147h1.94v10.36h-2.1l-4.18-6.76v6.76Z"/><path class="cls-1" d="M127.64,157.32V147h7.1v1.75h-5v2.45h4.33v1.76h-4.33v4.4Z"/><path class="cls-1" d="M136,152.2a6.47,6.47,0,0,1,.48-2.65,4.92,4.92,0,0,1,1-1.43,4.21,4.21,0,0,1,1.34-.93,5.77,5.77,0,0,1,2.24-.41,4.88,4.88,0,0,1,3.66,1.42,6.33,6.33,0,0,1,0,7.88,4.81,4.81,0,0,1-3.65,1.42,4.87,4.87,0,0,1-3.67-1.41A5.37,5.37,0,0,1,136,152.2Zm2.16-.07a3.88,3.88,0,0,0,.81,2.67,2.65,2.65,0,0,0,2.07.91,2.62,2.62,0,0,0,2-.9,3.94,3.94,0,0,0,.8-2.71,3.88,3.88,0,0,0-.78-2.65,2.62,2.62,0,0,0-2.07-.88,2.68,2.68,0,0,0-2.09.89A3.89,3.89,0,0,0,138.2,152.13Z"/><path class="cls-1" d="M147.74,157.32V147h4.4a7.49,7.49,0,0,1,2.42.28,2.32,2.32,0,0,1,1.2,1,3,3,0,0,1,.45,1.63,2.81,2.81,0,0,1-.68,1.93,3.27,3.27,0,0,1-2.05,1,4.83,4.83,0,0,1,1.12.87,11.59,11.59,0,0,1,1.19,1.68l1.26,2h-2.5L153,155.07a16.57,16.57,0,0,0-1.1-1.53,1.65,1.65,0,0,0-.63-.43,3.47,3.47,0,0,0-1.06-.11h-.42v4.32Zm2.09-6h1.55a7.67,7.67,0,0,0,1.88-.13,1.17,1.17,0,0,0,.59-.43,1.38,1.38,0,0,0,.21-.78,1.3,1.3,0,0,0-.28-.85,1.28,1.28,0,0,0-.79-.4,14.55,14.55,0,0,0-1.53,0h-1.63Z"/><path class="cls-1" d="M158.16,157.32V147h3.13l1.88,7.07L165,147h3.14v10.36h-1.95v-8.16l-2.05,8.16h-2l-2.05-8.16v8.16Z"/><path class="cls-1" d="M179.59,157.32h-2.27l-.91-2.35h-4.14l-.86,2.35h-2.22l4-10.36h2.21Zm-3.85-4.1-1.43-3.84-1.4,3.84Z"/><path class="cls-1" d="M180.72,157.32V147h2l4.24,6.92V147h1.94v10.36h-2.09l-4.18-6.76v6.76Z"/><path class="cls-1" d="M197.79,153.51l2,.65a4.57,4.57,0,0,1-1.55,2.52,4.52,4.52,0,0,1-2.76.82,4.47,4.47,0,0,1-3.39-1.41,5.39,5.39,0,0,1-1.33-3.86,5.69,5.69,0,0,1,1.34-4,4.59,4.59,0,0,1,3.51-1.43,4.31,4.31,0,0,1,3.09,1.13,4.09,4.09,0,0,1,1.06,1.9l-2.07.5A2.16,2.16,0,0,0,197,149a2.21,2.21,0,0,0-1.42-.47,2.38,2.38,0,0,0-1.87.83,4.09,4.09,0,0,0-.71,2.68,4.37,4.37,0,0,0,.7,2.8,2.32,2.32,0,0,0,1.84.83,2.12,2.12,0,0,0,1.44-.53A3.11,3.11,0,0,0,197.79,153.51Z"/><path class="cls-1" d="M201.61,157.32V147h7.69v1.75h-5.59V151h5.2v1.75h-5.2v2.82h5.79v1.74Z"/><path class="cls-1" d="M215.3,147h4.14a12,12,0,0,1,1.84.1,2.7,2.7,0,0,1,1.08.43,2.62,2.62,0,0,1,.79.86,2.32,2.32,0,0,1,.32,1.22,2.41,2.41,0,0,1-.39,1.33,2.49,2.49,0,0,1-1.06.92,2.66,2.66,0,0,1,1.45.94,2.48,2.48,0,0,1,.51,1.56,3,3,0,0,1-.33,1.37,2.78,2.78,0,0,1-.9,1.07,2.89,2.89,0,0,1-1.4.49c-.35,0-1.19.06-2.52.07H215.3Zm2.09,1.72v2.4h1.37a15,15,0,0,0,1.52,0,1.36,1.36,0,0,0,.85-.37,1.1,1.1,0,0,0,.31-.81,1.12,1.12,0,0,0-.27-.78,1.2,1.2,0,0,0-.79-.36c-.2,0-.8,0-1.79,0Zm0,4.13v2.77h1.94a9.4,9.4,0,0,0,1.43-.07,1.21,1.21,0,0,0,.76-.41,1.25,1.25,0,0,0,.3-.88,1.34,1.34,0,0,0-.23-.79,1.28,1.28,0,0,0-.65-.48,7.27,7.27,0,0,0-1.86-.14Z"/><path class="cls-1" d="M225.32,152.2a6.47,6.47,0,0,1,.48-2.65,4.92,4.92,0,0,1,1-1.43,4.21,4.21,0,0,1,1.34-.93,5.77,5.77,0,0,1,2.24-.41A4.88,4.88,0,0,1,234,148.2a6.33,6.33,0,0,1,0,7.88,4.81,4.81,0,0,1-3.65,1.42,4.87,4.87,0,0,1-3.67-1.41A5.37,5.37,0,0,1,225.32,152.2Zm2.16-.07a3.88,3.88,0,0,0,.81,2.67,2.65,2.65,0,0,0,2.07.91,2.62,2.62,0,0,0,2-.9,3.94,3.94,0,0,0,.8-2.71,3.88,3.88,0,0,0-.78-2.65,2.62,2.62,0,0,0-2.07-.88,2.68,2.68,0,0,0-2.09.89A3.89,3.89,0,0,0,227.48,152.13Z"/><path class="cls-1" d="M237,157.32V147h4.4a7.49,7.49,0,0,1,2.42.28,2.32,2.32,0,0,1,1.2,1,3,3,0,0,1,.45,1.63,2.81,2.81,0,0,1-.68,1.93,3.27,3.27,0,0,1-2.05,1,4.83,4.83,0,0,1,1.12.87,11.59,11.59,0,0,1,1.19,1.68l1.26,2h-2.5l-1.51-2.25a16.57,16.57,0,0,0-1.1-1.53,1.65,1.65,0,0,0-.63-.43,3.47,3.47,0,0,0-1.06-.11h-.42v4.32Zm2.09-6h1.55a7.67,7.67,0,0,0,1.88-.13,1.17,1.17,0,0,0,.59-.43,1.38,1.38,0,0,0,.21-.78,1.3,1.3,0,0,0-.28-.85,1.28,1.28,0,0,0-.79-.4,14.55,14.55,0,0,0-1.53,0h-1.63Z"/><path class="cls-1" d="M247.46,147h3.82a7.19,7.19,0,0,1,2,.2,3.51,3.51,0,0,1,1.56,1,4.68,4.68,0,0,1,1,1.68,7.82,7.82,0,0,1,.34,2.45,6.92,6.92,0,0,1-.32,2.21,4.64,4.64,0,0,1-1.11,1.83,3.58,3.58,0,0,1-1.47.82,6.19,6.19,0,0,1-1.85.22h-3.94Zm2.09,1.75v6.87h1.56a6.1,6.1,0,0,0,1.27-.1,2,2,0,0,0,.84-.43,2.19,2.19,0,0,0,.55-1,6.87,6.87,0,0,0,.21-1.9,6.3,6.3,0,0,0-.21-1.85,2.37,2.37,0,0,0-.59-1,2.08,2.08,0,0,0-1-.49,9.12,9.12,0,0,0-1.72-.1Z"/></g></g></svg>