<svg xmlns="http://www.w3.org/2000/svg" viewBox="0 0 319.53 130.84"><defs><style>.cls-1{fill:#f15a24;}</style></defs><g id="Layer_2" data-name="Layer 2"><g id="Layer_1-2" data-name="Layer 1"><path class="cls-1" d="M64,21,91.3,0c0,.92.11,1.55.11,2.18,0,10.81,0,21.62,0,32.44,0,10.18.21,20.36.25,30.54,0,4-.14,8-.28,12-.05,1.36.27,2,1.83,1.94,3.64-.11,7.28-.07,10.92,0,1.22,0,1.64-.42,1.59-1.61-.13-3.32-.29-6.65-.27-10,0-13.09.17-26.18.27-39.26,0-.36.07-.72.13-1.29.52.32.94.52,1.3.79,3.58,2.74,7.19,5.44,10.69,8.28a3.65,3.65,0,0,1,1.19,2.41c.12,3.95,0,7.91,0,11.86v2.16h20.62V68.74H119.23V79h19.85l.18.46c-.49.4-1,.81-1.47,1.2-5.82,4.48-11.67,8.93-17.43,13.48a3.61,3.61,0,0,0-1.2,2.4c-.15,2.77-.06,5.55-.06,8.7h-3.89c-2.53,0-5.06-.07-7.59,0-1.41.05-2-.34-1.92-1.86.12-2.28,0-4.57,0-6.85,0-1.13-.25-1.69-1.54-1.67-3.76.07-7.52.06-11.29,0-1.13,0-1.53.39-1.51,1.5,0,2.47.07,4.94,0,7.41,0,.49-.61,1.35-1,1.36-4,.09-8.11.06-12.34.06V69H63.8V105H50.35V95.26H36.16v10H22.6V95.19H1.87V78.93H22.4V68.8H2.19a5.58,5.58,0,0,1,.75-.94q16.29-12.53,32.6-25a4.44,4.44,0,0,1,.65-.34c0,.67-.09,1.35-.1,2v34.2h14V42.53H36.15c5.05-3.94,10.08-7.89,15.14-11.81C55.48,27.47,59.7,24.26,63.9,21a9.24,9.24,0,0,0-.1.92q0,14.63,0,29.27A8.59,8.59,0,0,0,64,52.4H77.83a2.86,2.86,0,0,0,.17-.48c0-9.88,0-19.76.06-29.65,0-1.31-.75-1.31-1.68-1.31Z"/><path class="cls-1" d="M269.65,41.09h11.22V61.81a16.67,16.67,0,0,1,9.41-6c10.38-2.47,20.65,2.21,26,11.83,6.8,12.32,2.7,28.93-9,35.22-7.56,4.06-15.36,4.31-22.81-.53a35.51,35.51,0,0,1-4.51-4.16v6H269.65Zm38.49,39.45c-.05-8.15-5.85-14.09-13.73-14.06-8.06,0-14.23,6-14.2,13.68,0,8.44,6.17,14.58,14.44,14.5C302.46,94.58,308.18,88.59,308.14,80.54Z"/><path class="cls-1" d="M253.62,61.27V41.2h11.26v63.05c-3.12,0-6.19,0-9.26,0-.34,0-.91-.74-1-1.17-.11-1.52,0-3.06,0-4.7-.37.09-.6.07-.67.17-6,8.52-20.37,10.06-29.9,1.81-11.77-10.19-11.89-29.86-.2-39.69,6.77-5.69,17.19-7.07,24.45-3.11A55.37,55.37,0,0,1,253.62,61.27Zm-13.24,5.18a14.13,14.13,0,0,0-13.92,13.73c0,8,6.08,14.46,13.74,14.53a14.13,14.13,0,0,0,.18-28.26Z"/><path class="cls-1" d="M197,72.54c-4,0-8,0-12,0a2,2,0,0,1-1.28-.83c-3.39-4.82-8.15-6-13.56-4.86S161.33,71.58,160,77c-2.43,10.18,5.89,19.27,16,17.45A12.73,12.73,0,0,0,183.49,90a3.43,3.43,0,0,1,2.24-1.1c3.7-.12,7.39,0,11.09,0-.28,7.78-12.25,16.77-22.4,16.91-13.85.17-25.13-10-26.09-23.14a25.33,25.33,0,0,1,23.08-27.35C185,54.2,195.46,64.32,197,72.54Z"/><path class="cls-1" d="M201,104.29V56.72c3.55,0,7,0,10.53.07.28,0,.75,1,.76,1.51.06,3.88,0,7.77,0,11.66,0,10.8,0,21.6,0,32.4,0,1.55-.43,2-2,2C207.35,104.21,204.27,104.29,201,104.29Z"/><path class="cls-1" d="M201,51.27V41.05h11.3c0,3.16,0,6.29-.05,9.42,0,.27-.61.76-.95.77C208,51.29,204.57,51.27,201,51.27Z"/><path class="cls-1" d="M7.41,123.58l2.14.69a4.74,4.74,0,0,1-1.64,2.66A4.66,4.66,0,0,1,5,127.8a4.68,4.68,0,0,1-3.59-1.49A5.68,5.68,0,0,1,0,122.23,6,6,0,0,1,1.41,118a4.88,4.88,0,0,1,3.72-1.52,4.58,4.58,0,0,1,3.27,1.19,4.32,4.32,0,0,1,1.13,2l-2.2.52a2.34,2.34,0,0,0-.81-1.34,2.32,2.32,0,0,0-1.5-.5,2.52,2.52,0,0,0-2,.88,4.33,4.33,0,0,0-.76,2.84A4.6,4.6,0,0,0,3,125a2.43,2.43,0,0,0,2,.88,2.22,2.22,0,0,0,1.51-.56A3.23,3.23,0,0,0,7.41,123.58Z"/><path class="cls-1" d="M11.18,123.53a4.38,4.38,0,0,1,.52-2A3.5,3.5,0,0,1,13.16,120a4.3,4.3,0,0,1,2.12-.52,4,4,0,0,1,3,1.17,4.41,4.41,0,0,1,0,6,3.93,3.93,0,0,1-2.93,1.19,4.59,4.59,0,0,1-2.08-.5,3.4,3.4,0,0,1-1.51-1.44A4.92,4.92,0,0,1,11.18,123.53Zm2.16.11a2.63,2.63,0,0,0,.56,1.81,1.83,1.83,0,0,0,2.76,0,3.21,3.21,0,0,0,0-3.62,1.83,1.83,0,0,0-2.76,0A2.67,2.67,0,0,0,13.34,123.64Z"/><path class="cls-1" d="M28.49,127.62h-2.1v-4.06a6.11,6.11,0,0,0-.14-1.66,1.14,1.14,0,0,0-.44-.59,1.23,1.23,0,0,0-.73-.21,1.69,1.69,0,0,0-1,.3,1.5,1.5,0,0,0-.59.79,6.78,6.78,0,0,0-.16,1.83v3.6h-2.1v-8H23.2v1.17a3.17,3.17,0,0,1,2.62-1.35,3.1,3.1,0,0,1,1.27.25,2.2,2.2,0,0,1,.87.64,2.22,2.22,0,0,1,.41.88,6.44,6.44,0,0,1,.12,1.42Z"/><path class="cls-1" d="M30.11,125.35l2.11-.32a1.51,1.51,0,0,0,.55.93,1.83,1.83,0,0,0,1.15.32,2.11,2.11,0,0,0,1.23-.3.68.68,0,0,0,.27-.56.57.57,0,0,0-.15-.4,1.71,1.71,0,0,0-.7-.28,11.31,11.31,0,0,1-3.23-1,2.07,2.07,0,0,1-.94-1.79,2.2,2.2,0,0,1,.82-1.74,3.84,3.84,0,0,1,2.53-.7,4.45,4.45,0,0,1,2.42.53,2.73,2.73,0,0,1,1.09,1.57l-2,.37a1.21,1.21,0,0,0-.48-.71,1.75,1.75,0,0,0-1-.25,2.35,2.35,0,0,0-1.19.23.51.51,0,0,0-.24.43.46.46,0,0,0,.21.38,7.78,7.78,0,0,0,2,.59,5.85,5.85,0,0,1,2.34.94,1.93,1.93,0,0,1,.66,1.56,2.39,2.39,0,0,1-.91,1.88,4,4,0,0,1-2.7.79,4.43,4.43,0,0,1-2.57-.66A3,3,0,0,1,30.11,125.35Z"/><path class="cls-1" d="M43.25,119.67v1.68H41.81v3.2a7.49,7.49,0,0,0,0,1.13A.47.47,0,0,0,42,126a.58.58,0,0,0,.35.1,2.56,2.56,0,0,0,.85-.2l.18,1.63a4.16,4.16,0,0,1-1.66.32,2.82,2.82,0,0,1-1-.19,1.62,1.62,0,0,1-.67-.5,1.88,1.88,0,0,1-.29-.82,9.33,9.33,0,0,1-.07-1.48v-3.46h-1v-1.68h1v-1.58l2.11-1.23v2.81Z"/><path class="cls-1" d="M47,127.62h-2.1v-8H46.8v1.13a3.32,3.32,0,0,1,.9-1,1.67,1.67,0,0,1,.91-.26,2.59,2.59,0,0,1,1.38.4l-.65,1.83a1.81,1.81,0,0,0-1-.34,1.16,1.16,0,0,0-.75.24,1.66,1.66,0,0,0-.49.88,13.1,13.1,0,0,0-.17,2.66Z"/><path class="cls-1" d="M56.36,127.62v-1.19a3.07,3.07,0,0,1-1.14,1,3.25,3.25,0,0,1-1.49.37,3,3,0,0,1-1.44-.35,2.15,2.15,0,0,1-.92-1,4.41,4.41,0,0,1-.29-1.76v-5h2.11v3.65a11.1,11.1,0,0,0,.11,2.06,1.08,1.08,0,0,0,.43.59,1.26,1.26,0,0,0,.77.23,1.66,1.66,0,0,0,1-.3,1.51,1.51,0,0,0,.58-.73,8.29,8.29,0,0,0,.16-2.15v-3.35h2.1v8Z"/><path class="cls-1" d="M67.65,122l-2.07.37a1.49,1.49,0,0,0-.48-.93,1.44,1.44,0,0,0-1-.32,1.58,1.58,0,0,0-1.25.55,2.71,2.71,0,0,0-.47,1.81,3.28,3.28,0,0,0,.47,2,1.57,1.57,0,0,0,1.28.58,1.41,1.41,0,0,0,1-.34,2.06,2.06,0,0,0,.54-1.17l2.06.35a3.62,3.62,0,0,1-1.23,2.15,3.86,3.86,0,0,1-2.45.73,3.65,3.65,0,0,1-2.78-1.1,4.28,4.28,0,0,1-1-3,4.24,4.24,0,0,1,1-3.06,3.69,3.69,0,0,1,2.81-1.1,3.81,3.81,0,0,1,2.31.63A3.45,3.45,0,0,1,67.65,122Z"/><path class="cls-1" d="M73.12,119.67v1.68H71.68v3.2a7.49,7.49,0,0,0,0,1.13.47.47,0,0,0,.19.27.56.56,0,0,0,.35.1,2.56,2.56,0,0,0,.85-.2l.18,1.63a4.16,4.16,0,0,1-1.66.32,2.82,2.82,0,0,1-1-.19,1.55,1.55,0,0,1-.67-.5,1.88,1.88,0,0,1-.29-.82,9.33,9.33,0,0,1-.07-1.48v-3.46h-1v-1.68h1v-1.58l2.11-1.23v2.81Z"/><path class="cls-1" d="M74.8,118.59v-1.94h2.11v1.94Zm0,9v-8h2.11v8Z"/><path class="cls-1" d="M78.81,123.53a4.36,4.36,0,0,1,.51-2A3.56,3.56,0,0,1,80.78,120a4.32,4.32,0,0,1,2.12-.52,4,4,0,0,1,2.95,1.17,4.38,4.38,0,0,1,0,6,3.93,3.93,0,0,1-2.93,1.19,4.62,4.62,0,0,1-2.08-.5,3.45,3.45,0,0,1-1.51-1.44A4.92,4.92,0,0,1,78.81,123.53Zm2.15.11a2.63,2.63,0,0,0,.56,1.81,1.8,1.8,0,0,0,1.39.63,1.78,1.78,0,0,0,1.38-.63,3.25,3.25,0,0,0,0-3.62,1.78,1.78,0,0,0-1.38-.63,1.8,1.8,0,0,0-1.39.63A2.67,2.67,0,0,0,81,123.64Z"/><path class="cls-1" d="M96.11,127.62H94v-4.06a6.11,6.11,0,0,0-.14-1.66,1.18,1.18,0,0,0-.43-.59,1.28,1.28,0,0,0-.73-.21,1.67,1.67,0,0,0-1,.3,1.52,1.52,0,0,0-.6.79A6.78,6.78,0,0,0,91,124v3.6h-2.1v-8h1.95v1.17a3.18,3.18,0,0,1,2.62-1.35,3.1,3.1,0,0,1,1.27.25,2.06,2.06,0,0,1,.87.64,2.22,2.22,0,0,1,.41.88,6.44,6.44,0,0,1,.12,1.42Z"/><path class="cls-1" d="M102.91,127.62v-11h2.21v11Z"/><path class="cls-1" d="M114.68,127.62h-2.11v-4.06a6.27,6.27,0,0,0-.13-1.66,1.2,1.2,0,0,0-.44-.59,1.23,1.23,0,0,0-.73-.21,1.69,1.69,0,0,0-1,.3,1.45,1.45,0,0,0-.59.79,6.66,6.66,0,0,0-.17,1.83v3.6h-2.1v-8h2v1.17a3.25,3.25,0,0,1,3.89-1.1,2.2,2.2,0,0,1,.87.64,2.54,2.54,0,0,1,.41.88,6.44,6.44,0,0,1,.12,1.42Z"/><path class="cls-1" d="M124.33,127.62h-2v-1.17a3.07,3.07,0,0,1-1.15,1,2.83,2.83,0,0,1-1.33.34,3,3,0,0,1-2.35-1.11,4.48,4.48,0,0,1-1-3.08,4.41,4.41,0,0,1,1-3.07,3.09,3.09,0,0,1,2.4-1.05,3,3,0,0,1,2.3,1.11v-3.95h2.11Zm-5.62-4.15a3.56,3.56,0,0,0,.36,1.84,1.58,1.58,0,0,0,1.42.83,1.55,1.55,0,0,0,1.23-.62,2.85,2.85,0,0,0,.51-1.85,3.11,3.11,0,0,0-.49-2,1.62,1.62,0,0,0-2.52,0A2.63,2.63,0,0,0,118.71,123.47Z"/><path class="cls-1" d="M131.86,127.62v-1.19a3.07,3.07,0,0,1-1.14,1,3.26,3.26,0,0,1-1.5.37,2.94,2.94,0,0,1-1.43-.35,2.1,2.1,0,0,1-.92-1,4.41,4.41,0,0,1-.29-1.76v-5h2.11v3.65a10.22,10.22,0,0,0,.11,2.06,1.11,1.11,0,0,0,.42.59,1.31,1.31,0,0,0,.78.23,1.66,1.66,0,0,0,1-.3,1.51,1.51,0,0,0,.58-.73,8.29,8.29,0,0,0,.16-2.15v-3.35h2.1v8Z"/><path class="cls-1" d="M135.48,125.35l2.11-.32a1.55,1.55,0,0,0,.54.93,1.88,1.88,0,0,0,1.16.32,2.05,2.05,0,0,0,1.22-.3.66.66,0,0,0,.28-.56.57.57,0,0,0-.15-.4,1.71,1.71,0,0,0-.7-.28,11.31,11.31,0,0,1-3.23-1,2,2,0,0,1-.94-1.79,2.22,2.22,0,0,1,.81-1.74,3.88,3.88,0,0,1,2.53-.7,4.47,4.47,0,0,1,2.43.53,2.73,2.73,0,0,1,1.09,1.57l-2,.37a1.26,1.26,0,0,0-.48-.71,1.75,1.75,0,0,0-1-.25,2.35,2.35,0,0,0-1.19.23.51.51,0,0,0-.24.43.46.46,0,0,0,.21.38,7.78,7.78,0,0,0,2,.59,5.85,5.85,0,0,1,2.34.94,1.93,1.93,0,0,1,.66,1.56A2.39,2.39,0,0,1,142,127a4,4,0,0,1-2.7.79,4.41,4.41,0,0,1-2.57-.66A3,3,0,0,1,135.48,125.35Z"/><path class="cls-1" d="M148.61,119.67v1.68h-1.43v3.2a7.49,7.49,0,0,0,0,1.13.47.47,0,0,0,.19.27.56.56,0,0,0,.35.1,2.56,2.56,0,0,0,.85-.2l.18,1.63a4.2,4.2,0,0,1-1.66.32,2.78,2.78,0,0,1-1-.19,1.55,1.55,0,0,1-.67-.5,1.88,1.88,0,0,1-.29-.82,9.33,9.33,0,0,1-.07-1.48v-3.46h-1v-1.68h1v-1.58l2.11-1.23v2.81Z"/><path class="cls-1" d="M152.32,127.62h-2.11v-8h2v1.13a3.32,3.32,0,0,1,.9-1,1.67,1.67,0,0,1,.91-.26,2.59,2.59,0,0,1,1.38.4l-.65,1.83a1.81,1.81,0,0,0-1-.34,1.2,1.2,0,0,0-.75.24,1.72,1.72,0,0,0-.48.88,12.38,12.38,0,0,0-.17,2.66Z"/><path class="cls-1" d="M155.5,119.67h2.24l1.9,5.64,1.85-5.64h2.18l-2.8,7.65-.5,1.38a6.05,6.05,0,0,1-.53,1.06,2.22,2.22,0,0,1-.58.6,2.45,2.45,0,0,1-.8.35,3.92,3.92,0,0,1-1.07.13,5.23,5.23,0,0,1-1.19-.13l-.19-1.64a5.15,5.15,0,0,0,.89.1,1.36,1.36,0,0,0,1.09-.43,3,3,0,0,0,.53-1.1Z"/><path class="cls-1" d="M169.74,116.65h4a7.93,7.93,0,0,1,2.09.21,3.63,3.63,0,0,1,1.65,1,4.74,4.74,0,0,1,1.05,1.77,8.15,8.15,0,0,1,.36,2.6,7,7,0,0,1-.34,2.33,4.74,4.74,0,0,1-1.17,1.94,4,4,0,0,1-1.56.88,6.87,6.87,0,0,1-2,.23h-4.17ZM172,118.5v7.27h1.65a5.92,5.92,0,0,0,1.34-.11,2.12,2.12,0,0,0,.9-.45,2.44,2.44,0,0,0,.58-1.06,7.16,7.16,0,0,0,.22-2,6.52,6.52,0,0,0-.22-2,2.54,2.54,0,0,0-.63-1.07,2.13,2.13,0,0,0-1-.51,9.84,9.84,0,0,0-1.82-.11Z"/><path class="cls-1" d="M185.63,125.09l2.1.35a3.43,3.43,0,0,1-1.28,1.75,3.67,3.67,0,0,1-2.18.61,3.56,3.56,0,0,1-3.07-1.36,4.56,4.56,0,0,1-.78-2.74,4.39,4.39,0,0,1,1-3.09,3.39,3.39,0,0,1,2.61-1.12,3.52,3.52,0,0,1,2.8,1.17,5.21,5.21,0,0,1,1,3.59h-5.27a2.2,2.2,0,0,0,.51,1.46,1.63,1.63,0,0,0,1.21.52,1.32,1.32,0,0,0,.84-.27A1.66,1.66,0,0,0,185.63,125.09Zm.12-2.13a2,2,0,0,0-.47-1.38,1.43,1.43,0,0,0-1.09-.48,1.48,1.48,0,0,0-1.14.5,2,2,0,0,0-.44,1.36Z"/><path class="cls-1" d="M192,127.62l-3.2-8H191l1.5,4.06.44,1.35c.11-.34.18-.57.21-.68s.15-.45.23-.67l1.51-4.06H197l-3.16,8Z"/><path class="cls-1" d="M203.14,125.09l2.09.35a3.41,3.41,0,0,1-1.27,1.75,3.69,3.69,0,0,1-2.18.61,3.54,3.54,0,0,1-3.07-1.36,4.56,4.56,0,0,1-.79-2.74,4.39,4.39,0,0,1,1-3.09,3.36,3.36,0,0,1,2.61-1.12,3.54,3.54,0,0,1,2.8,1.17,5.21,5.21,0,0,1,1,3.59h-5.27a2.1,2.1,0,0,0,.51,1.46,1.61,1.61,0,0,0,1.21.52,1.27,1.27,0,0,0,.83-.27A1.74,1.74,0,0,0,203.14,125.09Zm.12-2.13a2,2,0,0,0-.47-1.38,1.46,1.46,0,0,0-1.1-.48,1.47,1.47,0,0,0-1.13.5,1.92,1.92,0,0,0-.44,1.36Z"/><path class="cls-1" d="M207.29,127.62v-11h2.1v11Z"/><path class="cls-1" d="M211.29,123.53a4.26,4.26,0,0,1,.52-2,3.5,3.5,0,0,1,1.46-1.49,4.29,4.29,0,0,1,2.11-.52,4,4,0,0,1,3,1.17,4,4,0,0,1,1.15,3,4.12,4.12,0,0,1-1.16,3,3.94,3.94,0,0,1-2.93,1.19,4.66,4.66,0,0,1-2.09-.5,3.37,3.37,0,0,1-1.5-1.44A4.8,4.8,0,0,1,211.29,123.53Zm2.16.11a2.58,2.58,0,0,0,.56,1.81,1.83,1.83,0,0,0,2.76,0,3.21,3.21,0,0,0,0-3.62,1.83,1.83,0,0,0-2.76,0A2.62,2.62,0,0,0,213.45,123.64Z"/><path class="cls-1" d="M221.31,119.67h2v1.17a2.91,2.91,0,0,1,1-1,2.84,2.84,0,0,1,1.44-.38,3,3,0,0,1,2.35,1.09,4.35,4.35,0,0,1,1,3,4.54,4.54,0,0,1-1,3.09,3,3,0,0,1-2.36,1.11,2.7,2.7,0,0,1-1.19-.26,4.11,4.11,0,0,1-1.13-.9v4h-2.1Zm2.08,3.84a3,3,0,0,0,.53,2,1.6,1.6,0,0,0,1.29.64,1.52,1.52,0,0,0,1.22-.59,3,3,0,0,0,.49-1.93,2.88,2.88,0,0,0-.5-1.85,1.55,1.55,0,0,0-1.24-.61,1.6,1.6,0,0,0-1.28.6A2.62,2.62,0,0,0,223.39,123.51Z"/><path class="cls-1" d="M230.8,119.67h1.94v1.09a3.1,3.1,0,0,1,2.47-1.27,2.67,2.67,0,0,1,1.33.32,2.41,2.41,0,0,1,.92,1,3.65,3.65,0,0,1,1.13-1,2.74,2.74,0,0,1,1.29-.32,2.88,2.88,0,0,1,1.49.36,2.15,2.15,0,0,1,.9,1,4.42,4.42,0,0,1,.22,1.65v5.08h-2.1v-4.54a3.45,3.45,0,0,0-.22-1.53,1,1,0,0,0-.9-.45,1.44,1.44,0,0,0-.83.27,1.46,1.46,0,0,0-.56.79,5.5,5.5,0,0,0-.17,1.64v3.82H235.6v-4.36a5.75,5.75,0,0,0-.11-1.49.92.92,0,0,0-.35-.51,1.08,1.08,0,0,0-.64-.16,1.56,1.56,0,0,0-.87.26,1.45,1.45,0,0,0-.56.76,5.67,5.67,0,0,0-.17,1.64v3.86h-2.1Z"/><path class="cls-1" d="M249.41,125.09l2.1.35a3.43,3.43,0,0,1-1.28,1.75,3.67,3.67,0,0,1-2.18.61,3.56,3.56,0,0,1-3.07-1.36,4.56,4.56,0,0,1-.78-2.74,4.39,4.39,0,0,1,1-3.09,3.39,3.39,0,0,1,2.61-1.12,3.52,3.52,0,0,1,2.8,1.17,5.21,5.21,0,0,1,1,3.59h-5.27a2.2,2.2,0,0,0,.51,1.46,1.63,1.63,0,0,0,1.22.52,1.31,1.31,0,0,0,.83-.27A1.66,1.66,0,0,0,249.41,125.09Zm.12-2.13a2,2,0,0,0-.47-1.38,1.43,1.43,0,0,0-1.09-.48,1.48,1.48,0,0,0-1.14.5,2,2,0,0,0-.44,1.36Z"/><path class="cls-1" d="M260.79,127.62h-2.1v-4.06a6.27,6.27,0,0,0-.13-1.66,1.2,1.2,0,0,0-.44-.59,1.26,1.26,0,0,0-.73-.21,1.67,1.67,0,0,0-1,.3,1.52,1.52,0,0,0-.6.79,7.23,7.23,0,0,0-.16,1.83v3.6h-2.1v-8h1.95v1.17a3.19,3.19,0,0,1,2.62-1.35,3.06,3.06,0,0,1,1.27.25,2.16,2.16,0,0,1,.88.64,2.54,2.54,0,0,1,.41.88,7.26,7.26,0,0,1,.11,1.42Z"/><path class="cls-1" d="M266.8,119.67v1.68h-1.44v3.2a9.38,9.38,0,0,0,0,1.13.47.47,0,0,0,.19.27.61.61,0,0,0,.36.1,2.56,2.56,0,0,0,.84-.2l.18,1.63a4.16,4.16,0,0,1-1.66.32,2.73,2.73,0,0,1-1-.19,1.5,1.5,0,0,1-.67-.5,1.76,1.76,0,0,1-.3-.82,9.33,9.33,0,0,1-.07-1.48v-3.46h-1v-1.68h1v-1.58l2.11-1.23v2.81Z"/><path class="cls-1" d="M273,116.65h4.38a11.62,11.62,0,0,1,1.94.11,2.83,2.83,0,0,1,1.15.45,2.67,2.67,0,0,1,.84.92,2.43,2.43,0,0,1,.34,1.28,2.53,2.53,0,0,1-.42,1.41,2.58,2.58,0,0,1-1.12,1,2.88,2.88,0,0,1,1.54,1,2.64,2.64,0,0,1,.54,1.66,3.26,3.26,0,0,1-.35,1.45,2.92,2.92,0,0,1-.95,1.13,3.11,3.11,0,0,1-1.49.52c-.37,0-1.26.07-2.67.08H273Zm2.21,1.82V121h1.45c.87,0,1.4,0,1.61,0a1.44,1.44,0,0,0,.9-.39,1.19,1.19,0,0,0,.32-.86,1.17,1.17,0,0,0-.28-.82,1.25,1.25,0,0,0-.83-.39c-.22,0-.85,0-1.9,0Zm0,4.37v2.93h2.05a9.19,9.19,0,0,0,1.52-.07,1.35,1.35,0,0,0,.81-.44,1.37,1.37,0,0,0,.31-.93,1.43,1.43,0,0,0-.24-.84,1.38,1.38,0,0,0-.69-.5,8,8,0,0,0-2-.15Z"/><path class="cls-1" d="M283.79,123.53a4.36,4.36,0,0,1,.51-2,3.56,3.56,0,0,1,1.46-1.49,4.32,4.32,0,0,1,2.12-.52,4,4,0,0,1,2.95,1.17,4.38,4.38,0,0,1,0,6,3.93,3.93,0,0,1-2.93,1.19,4.59,4.59,0,0,1-2.08-.5,3.45,3.45,0,0,1-1.51-1.44A4.92,4.92,0,0,1,283.79,123.53Zm2.15.11a2.63,2.63,0,0,0,.56,1.81,1.84,1.84,0,0,0,2.77,0,3.25,3.25,0,0,0,0-3.62,1.84,1.84,0,0,0-2.77,0A2.67,2.67,0,0,0,285.94,123.64Z"/><path class="cls-1" d="M295.43,122.1l-1.9-.35a2.91,2.91,0,0,1,1.1-1.7,4.06,4.06,0,0,1,2.34-.56,5,5,0,0,1,2.09.33,2.16,2.16,0,0,1,1,.85,4.29,4.29,0,0,1,.28,1.88l0,2.46a8.29,8.29,0,0,0,.1,1.54,4.46,4.46,0,0,0,.38,1.07h-2.08c-.06-.14-.12-.35-.2-.62a2.55,2.55,0,0,0-.08-.25,3.88,3.88,0,0,1-1.15.79,3.4,3.4,0,0,1-1.31.26,2.71,2.71,0,0,1-1.93-.67,2.17,2.17,0,0,1-.71-1.68,2.29,2.29,0,0,1,.32-1.2,2.08,2.08,0,0,1,.9-.81,7.07,7.07,0,0,1,1.67-.49,11.8,11.8,0,0,0,2.05-.52v-.21a1.08,1.08,0,0,0-.3-.86,1.81,1.81,0,0,0-1.13-.26,1.49,1.49,0,0,0-.88.22A1.56,1.56,0,0,0,295.43,122.1Zm2.82,1.7a12.22,12.22,0,0,1-1.28.32,4,4,0,0,0-1.15.37.88.88,0,0,0-.41.74,1,1,0,0,0,.33.76,1.14,1.14,0,0,0,.84.33,1.8,1.8,0,0,0,1.08-.38,1.29,1.29,0,0,0,.5-.69,3.87,3.87,0,0,0,.09-1Z"/><path class="cls-1" d="M304.63,127.62h-2.11v-8h2v1.13a3.32,3.32,0,0,1,.9-1,1.67,1.67,0,0,1,.91-.26,2.59,2.59,0,0,1,1.38.4l-.65,1.83a1.81,1.81,0,0,0-1-.34,1.15,1.15,0,0,0-.74.24,1.66,1.66,0,0,0-.49.88,13.1,13.1,0,0,0-.17,2.66Z"/><path class="cls-1" d="M316.1,127.62h-2v-1.17a3.07,3.07,0,0,1-1.15,1,2.83,2.83,0,0,1-1.33.34,3,3,0,0,1-2.35-1.11,4.48,4.48,0,0,1-1-3.08,4.41,4.41,0,0,1,1-3.07,3.09,3.09,0,0,1,2.4-1.05,3,3,0,0,1,2.3,1.11v-3.95h2.11Zm-5.62-4.15a3.56,3.56,0,0,0,.36,1.84,1.58,1.58,0,0,0,1.42.83,1.55,1.55,0,0,0,1.23-.62,2.85,2.85,0,0,0,.51-1.85,3.11,3.11,0,0,0-.49-2,1.62,1.62,0,0,0-2.52,0A2.63,2.63,0,0,0,310.48,123.47Z"/></g></g></svg>