<svg xmlns="http://www.w3.org/2000/svg" viewBox="0 0 450.65 184.53"><defs><style>.cls-1{fill:#f15a24;}</style></defs><g id="Layer_2" data-name="Layer 2"><g id="Layer_1-2" data-name="Layer 1"><path class="cls-1" d="M90.23,29.56,128.77,0c.06,1.3.15,2.19.15,3.08,0,15.24,0,30.49,0,45.74.06,14.36.3,28.72.36,43.08,0,5.65-.2,11.3-.4,16.95-.07,1.92.38,2.81,2.58,2.74,5.13-.16,10.27-.11,15.41,0,1.72,0,2.31-.58,2.24-2.27-.19-4.68-.4-9.38-.38-14.07.07-18.45.24-36.91.38-55.36a18.29,18.29,0,0,1,.18-1.82c.74.45,1.33.73,1.84,1.12,5,3.86,10.13,7.67,15.07,11.67a5.15,5.15,0,0,1,1.68,3.41c.17,5.57.08,11.15.08,16.72v3h29.07V97H168.16v14.44h28l.25.64c-.69.57-1.37,1.15-2.08,1.69-8.2,6.33-16.44,12.6-24.57,19a5.11,5.11,0,0,0-1.69,3.39c-.21,3.9-.08,7.82-.08,12.26h-5.49c-3.57,0-7.14-.09-10.7,0-2,.07-2.82-.49-2.71-2.63.16-3.21,0-6.44.06-9.67,0-1.59-.36-2.38-2.18-2.34-5.3.1-10.61.08-15.92,0-1.6,0-2.16.54-2.13,2.12.07,3.48.09,7,0,10.45,0,.68-.86,1.9-1.34,1.91-5.71.13-11.43.08-17.4.08V97.24H90v50.9H71v-13.8H51v14.19H31.87V134.25H2.63V111.32h29V97H3.09a8.86,8.86,0,0,1,1-1.33q23-17.65,46-35.29a5.66,5.66,0,0,1,.91-.49c0,1-.13,1.91-.13,2.86q0,19.86,0,39.71V111H70.63V60H51q10.67-8.32,21.35-16.65c5.91-4.59,11.85-9.12,17.78-13.67A11.3,11.3,0,0,0,90,31q0,20.64,0,41.29a12.28,12.28,0,0,0,.24,1.66h19.55a3.47,3.47,0,0,0,.23-.67c0-13.94,0-27.88.09-41.81,0-1.86-1.06-1.86-2.37-1.85C101.89,29.58,96.06,29.56,90.23,29.56Z"/><path class="cls-1" d="M380.3,58h15.82V87.17a23.47,23.47,0,0,1,13.28-8.41C424,75.27,438.52,81.87,446,95.44c9.59,17.38,3.81,40.79-12.68,49.66-10.66,5.74-21.66,6.08-32.18-.73-2.27-1.48-4-3.71-6.35-5.87v8.44H380.3Zm54.28,55.65c-.07-11.5-8.25-19.88-19.37-19.84-11.35,0-20.06,8.43-20,19.29.05,11.9,8.69,20.57,20.36,20.45C426.57,133.38,434.65,124.94,434.58,113.6Z"/><path class="cls-1" d="M357.69,86.41V58.1h15.88V147c-4.4,0-8.73.05-13.05-.08-.49,0-1.3-1-1.34-1.65-.17-2.14-.07-4.3-.07-6.62-.52.12-.84.1-.94.24-8.47,12-28.73,14.19-42.17,2.54-16.59-14.36-16.77-42.11-.28-56,9.55-8,24.25-10,34.48-4.39A77.42,77.42,0,0,1,357.69,86.41ZM339,93.71c-10.46,0-19.59,9-19.63,19.37-.05,11.28,8.57,20.39,19.37,20.49A19.93,19.93,0,0,0,339,93.71Z"/><path class="cls-1" d="M277.77,102.31c-5.67,0-11.3,0-16.93,0a2.76,2.76,0,0,1-1.8-1.17c-4.78-6.8-11.5-8.46-19.13-6.85S227.52,101,225.7,108.58c-3.42,14.36,8.32,27.17,22.52,24.62A18,18,0,0,0,258.78,127,4.93,4.93,0,0,1,262,125.4c5.2-.16,10.42-.07,15.64-.07-.4,11-17.29,23.66-31.59,23.85-19.54.25-35.44-14.16-36.8-32.63A35.72,35.72,0,0,1,241.75,78C260.84,76.44,275.67,90.71,277.77,102.31Z"/><path class="cls-1" d="M283.51,147.09V80c5,0,9.93,0,14.85.1.39,0,1.05,1.37,1.07,2.12.09,5.48.05,11,.05,16.45,0,15.23,0,30.46,0,45.7,0,2.17-.59,2.85-2.77,2.77C292.43,147,288.1,147.09,283.51,147.09Z"/><path class="cls-1" d="M283.53,72.31V57.89h15.92c0,4.46,0,8.87-.06,13.28,0,.39-.87,1.08-1.34,1.09C293.28,72.34,288.52,72.31,283.53,72.31Z"/><path class="cls-1" d="M10.45,174.3l3,1A6.85,6.85,0,0,1,11.16,179a6.6,6.6,0,0,1-4.11,1.23A6.65,6.65,0,0,1,2,178.14a8,8,0,0,1-2-5.75,8.44,8.44,0,0,1,2-6,6.83,6.83,0,0,1,5.25-2.14,6.43,6.43,0,0,1,4.61,1.68,6.1,6.1,0,0,1,1.58,2.85l-3.09.74a3.22,3.22,0,0,0-1.14-1.9,3.26,3.26,0,0,0-2.12-.7,3.51,3.51,0,0,0-2.79,1.23,6.1,6.1,0,0,0-1.07,4,6.51,6.51,0,0,0,1,4.18A3.45,3.45,0,0,0,7,177.58a3.16,3.16,0,0,0,2.14-.79A4.6,4.6,0,0,0,10.45,174.3Z"/><path class="cls-1" d="M15.77,174.22a6.14,6.14,0,0,1,.73-2.86,5.05,5.05,0,0,1,2.06-2.11,6.21,6.21,0,0,1,3-.73,5.55,5.55,0,0,1,4.16,1.66,5.68,5.68,0,0,1,1.63,4.17,5.78,5.78,0,0,1-1.64,4.21,5.54,5.54,0,0,1-4.13,1.68,6.56,6.56,0,0,1-2.94-.7,4.78,4.78,0,0,1-2.13-2A6.88,6.88,0,0,1,15.77,174.22Zm3,.16a3.74,3.74,0,0,0,.79,2.55,2.53,2.53,0,0,0,2,.89,2.49,2.49,0,0,0,1.94-.89,3.71,3.71,0,0,0,.79-2.57,3.65,3.65,0,0,0-.79-2.53,2.49,2.49,0,0,0-1.94-.89,2.53,2.53,0,0,0-2,.89A3.74,3.74,0,0,0,18.81,174.38Z"/><path class="cls-1" d="M40.18,180h-3v-5.72a8.59,8.59,0,0,0-.19-2.34,1.62,1.62,0,0,0-.61-.83,1.76,1.76,0,0,0-1-.3,2.35,2.35,0,0,0-1.38.42,2.17,2.17,0,0,0-.84,1.12,9.35,9.35,0,0,0-.23,2.58V180H30v-11.2h2.76v1.64a4.51,4.51,0,0,1,3.69-1.9,4.42,4.42,0,0,1,1.8.36,2.94,2.94,0,0,1,1.23.9A3.45,3.45,0,0,1,40,171a10,10,0,0,1,.16,2Z"/><path class="cls-1" d="M42.47,176.79l3-.46a2.19,2.19,0,0,0,.77,1.32,2.61,2.61,0,0,0,1.63.45,3,3,0,0,0,1.73-.43.93.93,0,0,0,.39-.79.79.79,0,0,0-.21-.56,2.4,2.4,0,0,0-1-.39,16.26,16.26,0,0,1-4.55-1.44A2.89,2.89,0,0,1,42.88,172,3.08,3.08,0,0,1,44,169.52a5.29,5.29,0,0,1,3.56-1,6.19,6.19,0,0,1,3.42.75,3.81,3.81,0,0,1,1.54,2.22l-2.79.52a1.78,1.78,0,0,0-.68-1,2.52,2.52,0,0,0-1.43-.34A3.23,3.23,0,0,0,46,171a.71.71,0,0,0-.34.6.66.66,0,0,0,.3.54,10.8,10.8,0,0,0,2.77.84A8.17,8.17,0,0,1,52,174.27a2.78,2.78,0,0,1,.92,2.21,3.4,3.4,0,0,1-1.28,2.65,5.7,5.7,0,0,1-3.81,1.11,6.25,6.25,0,0,1-3.63-.93A4.25,4.25,0,0,1,42.47,176.79Z"/><path class="cls-1" d="M61,168.78v2.36H59v4.52a14,14,0,0,0,.05,1.6.65.65,0,0,0,.27.37.82.82,0,0,0,.5.15,3.89,3.89,0,0,0,1.19-.29l.26,2.3a5.83,5.83,0,0,1-2.35.45,3.7,3.7,0,0,1-1.44-.27,2.09,2.09,0,0,1-1-.7,2.64,2.64,0,0,1-.41-1.15A13.35,13.35,0,0,1,56,176v-4.89H54.63v-2.36H56v-2.23l3-1.73v4Z"/><path class="cls-1" d="M66.21,180h-3v-11.2H66v1.59a4.92,4.92,0,0,1,1.27-1.49,2.36,2.36,0,0,1,1.29-.36,3.81,3.81,0,0,1,2,.56l-.92,2.59a2.55,2.55,0,0,0-1.39-.49,1.65,1.65,0,0,0-1.06.35,2.32,2.32,0,0,0-.68,1.24,17.85,17.85,0,0,0-.25,3.75Z"/><path class="cls-1" d="M79.49,180v-1.67a4.39,4.39,0,0,1-1.61,1.41,4.6,4.6,0,0,1-2.11.52,4.09,4.09,0,0,1-2-.5,2.87,2.87,0,0,1-1.3-1.39,6.2,6.2,0,0,1-.4-2.48v-7.09h3v5.15a13.92,13.92,0,0,0,.17,2.89,1.52,1.52,0,0,0,.59.85,1.83,1.83,0,0,0,1.1.31,2.31,2.31,0,0,0,1.36-.42,2.08,2.08,0,0,0,.82-1,11.76,11.76,0,0,0,.23-3v-4.72h3V180Z"/><path class="cls-1" d="M95.41,172.09l-2.93.53a2,2,0,0,0-.67-1.32,2,2,0,0,0-1.35-.44,2.22,2.22,0,0,0-1.77.76,3.91,3.91,0,0,0-.66,2.56A4.52,4.52,0,0,0,88.7,177a2.2,2.2,0,0,0,1.8.82,2,2,0,0,0,1.38-.48,2.89,2.89,0,0,0,.76-1.65l2.92.49a5.19,5.19,0,0,1-1.75,3,5.31,5.31,0,0,1-3.45,1,5.15,5.15,0,0,1-3.92-1.55,7.07,7.07,0,0,1,0-8.62,5.22,5.22,0,0,1,4-1.55,5.45,5.45,0,0,1,3.25.88A4.89,4.89,0,0,1,95.41,172.09Z"/><path class="cls-1" d="M103.12,168.78v2.36h-2v4.52a11,11,0,0,0,.06,1.6.68.68,0,0,0,.26.37.85.85,0,0,0,.51.15,3.89,3.89,0,0,0,1.19-.29l.25,2.3a5.81,5.81,0,0,1-2.34.45,3.71,3.71,0,0,1-1.45-.27,2.06,2.06,0,0,1-.94-.7,2.77,2.77,0,0,1-.42-1.15,15.31,15.31,0,0,1-.09-2.09v-4.89H96.76v-2.36h1.36v-2.23l3-1.73v4Z"/><path class="cls-1" d="M105.5,167.26v-2.75h3v2.75Zm0,12.72v-11.2h3V180Z"/><path class="cls-1" d="M111.14,174.22a6.14,6.14,0,0,1,.73-2.86,5.05,5.05,0,0,1,2.06-2.11,6.21,6.21,0,0,1,3-.73,5.55,5.55,0,0,1,4.16,1.66,5.68,5.68,0,0,1,1.63,4.17,5.78,5.78,0,0,1-1.64,4.21,5.54,5.54,0,0,1-4.13,1.68,6.56,6.56,0,0,1-2.94-.7,4.78,4.78,0,0,1-2.13-2A6.88,6.88,0,0,1,111.14,174.22Zm3,.16a3.74,3.74,0,0,0,.79,2.55,2.53,2.53,0,0,0,2,.89,2.49,2.49,0,0,0,1.94-.89,3.71,3.71,0,0,0,.79-2.57,3.65,3.65,0,0,0-.79-2.53,2.49,2.49,0,0,0-1.94-.89,2.53,2.53,0,0,0-2,.89A3.74,3.74,0,0,0,114.18,174.38Z"/><path class="cls-1" d="M135.55,180h-3v-5.72a8.59,8.59,0,0,0-.19-2.34,1.62,1.62,0,0,0-.61-.83,1.76,1.76,0,0,0-1-.3,2.4,2.4,0,0,0-1.39.42,2.2,2.2,0,0,0-.83,1.12,9.35,9.35,0,0,0-.23,2.58V180h-3v-11.2h2.76v1.64a4.51,4.51,0,0,1,3.69-1.9,4.42,4.42,0,0,1,1.8.36,2.85,2.85,0,0,1,1.22.9,3.14,3.14,0,0,1,.58,1.24,9.19,9.19,0,0,1,.17,2Z"/><path class="cls-1" d="M145.13,180V164.51h3.13V180Z"/><path class="cls-1" d="M161.73,180h-3v-5.72a9,9,0,0,0-.19-2.34,1.7,1.7,0,0,0-.62-.83,1.76,1.76,0,0,0-1-.3,2.39,2.39,0,0,0-1.38.42,2.17,2.17,0,0,0-.84,1.12,9.77,9.77,0,0,0-.23,2.58V180h-3v-11.2h2.75v1.64a4.51,4.51,0,0,1,3.69-1.9,4.38,4.38,0,0,1,1.8.36,2.94,2.94,0,0,1,1.23.9,3.29,3.29,0,0,1,.58,1.24,9.31,9.31,0,0,1,.16,2Z"/><path class="cls-1" d="M175.34,180h-2.75v-1.64a4.56,4.56,0,0,1-1.62,1.43,4.19,4.19,0,0,1-5.19-1.09,7.59,7.59,0,0,1,0-8.67,4.36,4.36,0,0,1,3.39-1.49,4.19,4.19,0,0,1,3.25,1.57v-5.58h3Zm-7.91-5.84a5.13,5.13,0,0,0,.49,2.59,2.24,2.24,0,0,0,2,1.16,2.19,2.19,0,0,0,1.74-.87,4,4,0,0,0,.72-2.6,4.42,4.42,0,0,0-.7-2.78,2.29,2.29,0,0,0-3.55,0A3.78,3.78,0,0,0,167.43,174.14Z"/><path class="cls-1" d="M186,180v-1.67a4.39,4.39,0,0,1-1.61,1.41,4.6,4.6,0,0,1-2.11.52,4.15,4.15,0,0,1-2-.5,2.9,2.9,0,0,1-1.29-1.39,6.2,6.2,0,0,1-.4-2.48v-7.09h3v5.15a15.08,15.08,0,0,0,.16,2.89,1.59,1.59,0,0,0,.6.85,1.81,1.81,0,0,0,1.1.31,2.33,2.33,0,0,0,1.36-.42,2.14,2.14,0,0,0,.82-1,12,12,0,0,0,.22-3v-4.72h3V180Z"/><path class="cls-1" d="M191.07,176.79l3-.46a2.14,2.14,0,0,0,.77,1.32,2.56,2.56,0,0,0,1.62.45,2.94,2.94,0,0,0,1.73-.43.93.93,0,0,0,.39-.79.79.79,0,0,0-.21-.56,2.4,2.4,0,0,0-1-.39,16.39,16.39,0,0,1-4.55-1.44,2.89,2.89,0,0,1-1.33-2.53,3.08,3.08,0,0,1,1.15-2.44,5.34,5.34,0,0,1,3.57-1,6.24,6.24,0,0,1,3.42.75,3.85,3.85,0,0,1,1.54,2.22l-2.8.52a1.78,1.78,0,0,0-.68-1,2.5,2.5,0,0,0-1.43-.34,3.23,3.23,0,0,0-1.68.32.72.72,0,0,0-.33.6.65.65,0,0,0,.29.54,11,11,0,0,0,2.77.84,8.17,8.17,0,0,1,3.31,1.31,2.76,2.76,0,0,1,.93,2.21,3.38,3.38,0,0,1-1.29,2.65,5.7,5.7,0,0,1-3.81,1.11,6.22,6.22,0,0,1-3.62-.93A4.27,4.27,0,0,1,191.07,176.79Z"/><path class="cls-1" d="M209.6,168.78v2.36h-2v4.52a11,11,0,0,0,.06,1.6.68.68,0,0,0,.26.37.84.84,0,0,0,.5.15,3.87,3.87,0,0,0,1.2-.29l.25,2.3a5.81,5.81,0,0,1-2.34.45,3.71,3.71,0,0,1-1.45-.27,2.06,2.06,0,0,1-.94-.7,2.77,2.77,0,0,1-.42-1.15,15.31,15.31,0,0,1-.09-2.09v-4.89h-1.37v-2.36h1.37v-2.23l3-1.73v4Z"/><path class="cls-1" d="M214.82,180h-3v-11.2h2.76v1.59a4.78,4.78,0,0,1,1.27-1.49,2.31,2.31,0,0,1,1.28-.36,3.76,3.76,0,0,1,2,.56l-.92,2.59a2.55,2.55,0,0,0-1.39-.49,1.62,1.62,0,0,0-1.05.35,2.26,2.26,0,0,0-.68,1.24,17.17,17.17,0,0,0-.25,3.75Z"/><path class="cls-1" d="M219.31,168.78h3.16l2.68,7.95,2.61-7.95h3.07l-4,10.78-.71,1.95a8,8,0,0,1-.74,1.5,3.13,3.13,0,0,1-.82.84,3.36,3.36,0,0,1-1.13.5,5.79,5.79,0,0,1-1.51.18,7.86,7.86,0,0,1-1.68-.18L220,182a6.63,6.63,0,0,0,1.25.14,1.84,1.84,0,0,0,1.53-.61,4.11,4.11,0,0,0,.76-1.54Z"/><path class="cls-1" d="M239.4,164.51h5.71a11,11,0,0,1,2.94.3,5.2,5.2,0,0,1,2.33,1.42,6.82,6.82,0,0,1,1.48,2.51,11.37,11.37,0,0,1,.51,3.66,10.06,10.06,0,0,1-.48,3.29,6.81,6.81,0,0,1-1.66,2.73,5.5,5.5,0,0,1-2.19,1.24,9.78,9.78,0,0,1-2.77.32H239.4Zm3.12,2.62v10.25h2.33a8.43,8.43,0,0,0,1.89-.15,2.89,2.89,0,0,0,1.26-.64,3.24,3.24,0,0,0,.82-1.5,10.05,10.05,0,0,0,.32-2.83,9.33,9.33,0,0,0-.32-2.76,3.51,3.51,0,0,0-.89-1.49,3,3,0,0,0-1.44-.73,14,14,0,0,0-2.57-.15Z"/><path class="cls-1" d="M261.81,176.42l2.95.49a4.85,4.85,0,0,1-1.8,2.48,5.32,5.32,0,0,1-3.07.85,5,5,0,0,1-4.33-1.91,6.41,6.41,0,0,1-1.11-3.86,6.2,6.2,0,0,1,1.46-4.37,4.8,4.8,0,0,1,3.68-1.58,5,5,0,0,1,4,1.66c1,1.1,1.42,2.78,1.38,5.06h-7.43a3,3,0,0,0,.72,2,2.25,2.25,0,0,0,1.71.73,1.85,1.85,0,0,0,1.17-.38A2.3,2.3,0,0,0,261.81,176.42Zm.17-3a2.87,2.87,0,0,0-.67-2,2.13,2.13,0,0,0-3.14,0,2.73,2.73,0,0,0-.63,1.92Z"/><path class="cls-1" d="M270.74,180l-4.51-11.2h3.11l2.11,5.72.61,1.91c.16-.49.27-.81.31-1,.1-.32.2-.64.31-.95l2.14-5.72h3.05L273.41,180Z"/><path class="cls-1" d="M286.5,176.42l2.95.49a4.85,4.85,0,0,1-1.8,2.48,5.33,5.33,0,0,1-3.08.85,5,5,0,0,1-4.32-1.91,6.41,6.41,0,0,1-1.11-3.86,6.2,6.2,0,0,1,1.46-4.37,4.79,4.79,0,0,1,3.68-1.58,5,5,0,0,1,4,1.66c1,1.1,1.42,2.78,1.38,5.06h-7.43a3,3,0,0,0,.72,2,2.22,2.22,0,0,0,1.71.73,1.85,1.85,0,0,0,1.17-.38A2.43,2.43,0,0,0,286.5,176.42Zm.16-3a2.87,2.87,0,0,0-.66-2,2.14,2.14,0,0,0-3.15,0,2.73,2.73,0,0,0-.62,1.92Z"/><path class="cls-1" d="M292.35,180V164.51h3V180Z"/><path class="cls-1" d="M298,174.22a6,6,0,0,1,.73-2.86,5.05,5.05,0,0,1,2.06-2.11,6.2,6.2,0,0,1,3-.73,5.56,5.56,0,0,1,4.17,1.66,5.68,5.68,0,0,1,1.63,4.17,5.78,5.78,0,0,1-1.64,4.21,5.54,5.54,0,0,1-4.13,1.68,6.56,6.56,0,0,1-2.94-.7,4.73,4.73,0,0,1-2.13-2A6.77,6.77,0,0,1,298,174.22Zm3,.16a3.69,3.69,0,0,0,.79,2.55,2.53,2.53,0,0,0,1.95.89,2.5,2.5,0,0,0,2-.89,3.71,3.71,0,0,0,.79-2.57,3.65,3.65,0,0,0-.79-2.53,2.5,2.5,0,0,0-2-.89,2.53,2.53,0,0,0-1.95.89A3.69,3.69,0,0,0,301,174.38Z"/><path class="cls-1" d="M312.12,168.78h2.76v1.64a4.18,4.18,0,0,1,1.46-1.37,4,4,0,0,1,2-.53,4.27,4.27,0,0,1,3.31,1.53,6.19,6.19,0,0,1,1.36,4.27,6.4,6.4,0,0,1-1.37,4.36,4.27,4.27,0,0,1-3.32,1.56,3.91,3.91,0,0,1-1.69-.37,5.84,5.84,0,0,1-1.59-1.27v5.65h-3Zm2.93,5.41a4.31,4.31,0,0,0,.75,2.79,2.3,2.3,0,0,0,1.83.9,2.14,2.14,0,0,0,1.72-.82,4.34,4.34,0,0,0,.68-2.72,4.06,4.06,0,0,0-.7-2.62,2.2,2.2,0,0,0-1.76-.85,2.27,2.27,0,0,0-1.8.84A3.69,3.69,0,0,0,315.05,174.19Z"/><path class="cls-1" d="M325.51,168.78h2.73v1.53a4.4,4.4,0,0,1,3.49-1.79,3.72,3.72,0,0,1,1.87.45,3.36,3.36,0,0,1,1.3,1.34,5,5,0,0,1,1.59-1.34,3.87,3.87,0,0,1,1.83-.45,4.12,4.12,0,0,1,2.09.5,3.08,3.08,0,0,1,1.27,1.48,6.23,6.23,0,0,1,.31,2.32V180h-3v-6.4a4.79,4.79,0,0,0-.31-2.15,1.41,1.41,0,0,0-1.27-.64,2.06,2.06,0,0,0-1.17.38,2.17,2.17,0,0,0-.79,1.12,8,8,0,0,0-.24,2.31V180h-3v-6.14a8.28,8.28,0,0,0-.16-2.11,1.38,1.38,0,0,0-.49-.71,1.58,1.58,0,0,0-.9-.23,2.17,2.17,0,0,0-1.23.37,2,2,0,0,0-.79,1.07,7.8,7.8,0,0,0-.24,2.31V180h-3Z"/><path class="cls-1" d="M351.76,176.42l2.95.49a4.85,4.85,0,0,1-1.8,2.48,5.29,5.29,0,0,1-3.07.85,5,5,0,0,1-4.33-1.91,6.41,6.41,0,0,1-1.11-3.86,6.2,6.2,0,0,1,1.46-4.37,4.8,4.8,0,0,1,3.68-1.58,5,5,0,0,1,3.95,1.66c1,1.1,1.42,2.78,1.38,5.06h-7.43a3,3,0,0,0,.72,2,2.25,2.25,0,0,0,1.71.73,1.83,1.83,0,0,0,1.17-.38A2.3,2.3,0,0,0,351.76,176.42Zm.17-3a2.82,2.82,0,0,0-.67-2,2.13,2.13,0,0,0-3.14,0,2.73,2.73,0,0,0-.62,1.92Z"/><path class="cls-1" d="M367.81,180h-3v-5.72a8.59,8.59,0,0,0-.19-2.34,1.59,1.59,0,0,0-.62-.83,1.71,1.71,0,0,0-1-.3,2.4,2.4,0,0,0-1.39.42,2.28,2.28,0,0,0-.84,1.12,9.9,9.9,0,0,0-.22,2.58V180h-3v-11.2h2.76v1.64a4.49,4.49,0,0,1,3.69-1.9,4.37,4.37,0,0,1,1.79.36,2.82,2.82,0,0,1,1.23.9,3.29,3.29,0,0,1,.58,1.24,9.19,9.19,0,0,1,.17,2Z"/><path class="cls-1" d="M376.28,168.78v2.36h-2v4.52a11,11,0,0,0,.06,1.6.68.68,0,0,0,.26.37.84.84,0,0,0,.5.15,3.87,3.87,0,0,0,1.2-.29l.25,2.3a5.81,5.81,0,0,1-2.34.45,3.71,3.71,0,0,1-1.45-.27,2.06,2.06,0,0,1-.94-.7,2.77,2.77,0,0,1-.42-1.15,15.31,15.31,0,0,1-.09-2.09v-4.89h-1.37v-2.36h1.37v-2.23l3-1.73v4Z"/><path class="cls-1" d="M385,164.51h6.18a16.67,16.67,0,0,1,2.74.16,4,4,0,0,1,1.62.64,3.87,3.87,0,0,1,1.18,1.29,3.47,3.47,0,0,1,.48,1.81,3.69,3.69,0,0,1-2.17,3.35,4.13,4.13,0,0,1,2.17,1.41,3.7,3.7,0,0,1,.76,2.33,4.55,4.55,0,0,1-.49,2.05,4.22,4.22,0,0,1-1.34,1.6,4.53,4.53,0,0,1-2.1.73c-.52.05-1.77.09-3.76.1H385Zm3.12,2.58v3.58h2.05c1.22,0,2,0,2.27-.06a2,2,0,0,0,1.26-.55,1.63,1.63,0,0,0,.46-1.21,1.68,1.68,0,0,0-.4-1.17,1.79,1.79,0,0,0-1.17-.54c-.31,0-1.2,0-2.67,0Zm0,6.15v4.14H391a13.09,13.09,0,0,0,2.14-.1,1.83,1.83,0,0,0,1.57-1.93,2,2,0,0,0-.34-1.18,1.93,1.93,0,0,0-1-.71,10.56,10.56,0,0,0-2.77-.22Z"/><path class="cls-1" d="M400.23,174.22a6.14,6.14,0,0,1,.73-2.86,5.07,5.07,0,0,1,2.07-2.11,6.17,6.17,0,0,1,3-.73,5.55,5.55,0,0,1,4.16,1.66,5.68,5.68,0,0,1,1.63,4.17,5.78,5.78,0,0,1-1.64,4.21,5.52,5.52,0,0,1-4.13,1.68,6.56,6.56,0,0,1-2.94-.7,4.78,4.78,0,0,1-2.13-2A6.88,6.88,0,0,1,400.23,174.22Zm3,.16a3.74,3.74,0,0,0,.79,2.55,2.53,2.53,0,0,0,2,.89,2.49,2.49,0,0,0,1.94-.89,3.71,3.71,0,0,0,.79-2.57,3.65,3.65,0,0,0-.79-2.53,2.49,2.49,0,0,0-1.94-.89,2.53,2.53,0,0,0-2,.89A3.74,3.74,0,0,0,403.27,174.38Z"/><path class="cls-1" d="M416.66,172.2l-2.69-.49a4.22,4.22,0,0,1,1.56-2.41,5.74,5.74,0,0,1,3.3-.78,7.14,7.14,0,0,1,2.95.47,3,3,0,0,1,1.37,1.2,6.16,6.16,0,0,1,.39,2.65l0,3.46a12.54,12.54,0,0,0,.14,2.18,6.51,6.51,0,0,0,.54,1.5h-2.94a8.29,8.29,0,0,1-.28-.87c-.05-.18-.09-.29-.11-.35a5.45,5.45,0,0,1-1.62,1.11,4.81,4.81,0,0,1-1.85.37,3.87,3.87,0,0,1-2.73-.94,3.15,3.15,0,0,1-1-2.38,3.21,3.21,0,0,1,.45-1.69,2.93,2.93,0,0,1,1.27-1.14,10.33,10.33,0,0,1,2.36-.69,15.68,15.68,0,0,0,2.88-.73v-.29a1.54,1.54,0,0,0-.42-1.22,2.48,2.48,0,0,0-1.6-.37,2.19,2.19,0,0,0-1.23.31A2.16,2.16,0,0,0,416.66,172.2Zm4,2.4a18.43,18.43,0,0,1-1.8.46,5.23,5.23,0,0,0-1.62.51,1.25,1.25,0,0,0-.58,1.05,1.44,1.44,0,0,0,.46,1.07,1.61,1.61,0,0,0,1.19.46,2.6,2.6,0,0,0,1.53-.53,1.82,1.82,0,0,0,.7-1,5.7,5.7,0,0,0,.12-1.45Z"/><path class="cls-1" d="M429.63,180h-3v-11.2h2.76v1.59a4.78,4.78,0,0,1,1.27-1.49,2.33,2.33,0,0,1,1.28-.36,3.76,3.76,0,0,1,1.95.56l-.91,2.59a2.58,2.58,0,0,0-1.4-.49,1.64,1.64,0,0,0-1.05.35,2.26,2.26,0,0,0-.68,1.24,17.17,17.17,0,0,0-.25,3.75Z"/><path class="cls-1" d="M445.8,180h-2.75v-1.64a4.56,4.56,0,0,1-1.62,1.43,4.19,4.19,0,0,1-1.89.47,4.25,4.25,0,0,1-3.3-1.56,7.59,7.59,0,0,1,0-8.67,4.36,4.36,0,0,1,3.39-1.49,4.19,4.19,0,0,1,3.25,1.57v-5.58h3Zm-7.91-5.84a5.13,5.13,0,0,0,.49,2.59,2.24,2.24,0,0,0,2,1.16,2.19,2.19,0,0,0,1.74-.87,4,4,0,0,0,.72-2.6,4.36,4.36,0,0,0-.7-2.78,2.29,2.29,0,0,0-3.55,0A3.83,3.83,0,0,0,437.89,174.14Z"/></g></g></svg>