<svg xmlns="http://www.w3.org/2000/svg" viewBox="0 0 276.01 185.13"><defs><style>.cls-1{font-size:72px;font-family:Arial-BoldMT, Arial;font-weight:700;}.cls-1,.cls-2{fill:#f15a24;}</style></defs><g id="Layer_2" data-name="Layer 2"><g id="Layer_1-2" data-name="Layer 1"><text class="cls-1" transform="translate(0 61.77)">B-BBEE</text><path class="cls-2" d="M4.59,73.29v81h267v-81Zm47,62.78H20.31v-44h9v36.54H51.55Zm40.14,0H57.94V91.69H90.85V99.2H66.9V109H89.18v7.47H66.9v12.08H91.69Zm28.49,0h-9.57L94.75,91.69h9.72l11.23,32.85,10.87-32.85h9.5Zm54.22,0H140.65V91.69h32.9V99.2H149.61V109h22.28v7.47H149.61v12.08H174.4Zm39.08,0H182.24v-44h9v36.54h22.28Zm42.39,0h-8.51V104a29.25,29.25,0,0,1-11,6.45v-7.72a25,25,0,0,0,7.24-4.13,15.68,15.68,0,0,0,5.35-7.1h6.91Z"/><path class="cls-2" d="M21.39,175.21l5.05,1.6a11.33,11.33,0,0,1-3.86,6.27,11,11,0,0,1-6.85,2,11.06,11.06,0,0,1-8.43-3.51Q4,178.11,4,172q0-6.43,3.32-10a11.38,11.38,0,0,1,8.74-3.56,10.73,10.73,0,0,1,7.68,2.79A10.24,10.24,0,0,1,26.37,166l-5.15,1.23a5.33,5.33,0,0,0-5.43-4.32,5.86,5.86,0,0,0-4.65,2Q9.35,167,9.35,171.64q0,4.89,1.76,7a5.72,5.72,0,0,0,4.57,2.07,5.22,5.22,0,0,0,3.57-1.32A7.6,7.6,0,0,0,21.39,175.21Z"/><path class="cls-2" d="M30.57,172a16.32,16.32,0,0,1,1.18-6.61,11.87,11.87,0,0,1,2.4-3.53,10,10,0,0,1,3.33-2.32,14.09,14.09,0,0,1,5.55-1A12.13,12.13,0,0,1,52.15,162q3.42,3.54,3.41,9.83t-3.39,9.76a12,12,0,0,1-9.07,3.53A12.12,12.12,0,0,1,34,181.62Q30.57,178.11,30.57,172Zm5.36-.17q0,4.36,2,6.63a7,7,0,0,0,10.24,0q2-2.25,2-6.73t-1.95-6.6a6.54,6.54,0,0,0-5.16-2.18,6.6,6.6,0,0,0-5.18,2.2Q35.94,167.33,35.93,171.79Z"/><path class="cls-2" d="M60.4,184.69V158.92h5.06L76,176.13V158.92h4.83v25.77H75.62L65.23,167.88v16.81Z"/><path class="cls-2" d="M92.86,184.69V163.28H85.22v-4.36H105.7v4.36H98.07v21.41Z"/><path class="cls-2" d="M109.79,184.69V158.92h10.95a18.89,18.89,0,0,1,6,.69,6,6,0,0,1,3,2.47,7.45,7.45,0,0,1,1.13,4.06,6.86,6.86,0,0,1-1.71,4.79,8.11,8.11,0,0,1-5.1,2.38,12,12,0,0,1,2.79,2.17,29.25,29.25,0,0,1,3,4.18l3.15,5h-6.22L123,179.08a36.28,36.28,0,0,0-2.74-3.79,3.94,3.94,0,0,0-1.56-1.07,8.71,8.71,0,0,0-2.62-.29H115v10.76Zm5.2-14.87h3.85a19.87,19.87,0,0,0,4.68-.32,2.78,2.78,0,0,0,1.46-1.09,3.37,3.37,0,0,0,.53-1.93,2.93,2.93,0,0,0-2.66-3.11c-.42-.06-1.69-.09-3.8-.09H115Z"/><path class="cls-2" d="M136.33,184.69V158.92h5.21v25.77Z"/><path class="cls-2" d="M147.23,158.92h10.3a29.84,29.84,0,0,1,4.56.25,6.55,6.55,0,0,1,4.67,3.22,5.81,5.81,0,0,1,.79,3,6.06,6.06,0,0,1-3.62,5.59,6.79,6.79,0,0,1,3.62,2.34,6.18,6.18,0,0,1,1.27,3.89,7.61,7.61,0,0,1-.82,3.42,6.89,6.89,0,0,1-2.23,2.65,7.41,7.41,0,0,1-3.49,1.22c-.87.1-3,.15-6.28.18h-8.77Zm5.2,4.29v6h3.41q3,0,3.78-.09a3.49,3.49,0,0,0,2.1-.92,2.74,2.74,0,0,0,.77-2,2.83,2.83,0,0,0-.66-1.94,3,3,0,0,0-2-.91c-.52,0-2-.08-4.45-.08Zm0,10.24v6.9h4.82a24.17,24.17,0,0,0,3.57-.16,3.27,3.27,0,0,0,1.89-1,3.17,3.17,0,0,0,.73-2.19,3.41,3.41,0,0,0-.56-2,3.23,3.23,0,0,0-1.63-1.18,18,18,0,0,0-4.61-.37Z"/><path class="cls-2" d="M173.9,158.92h5.2v14a28.92,28.92,0,0,0,.19,4.31,4.23,4.23,0,0,0,1.59,2.54,5.56,5.56,0,0,0,3.44,1,5.2,5.2,0,0,0,3.34-.91,3.54,3.54,0,0,0,1.35-2.22,28,28,0,0,0,.23-4.38V158.92h5.21v13.53A34.72,34.72,0,0,1,194,179a7.22,7.22,0,0,1-1.55,3.23,7.9,7.9,0,0,1-3,2.1,13,13,0,0,1-5,.79,14.23,14.23,0,0,1-5.6-.86,7.82,7.82,0,0,1-3-2.21,7,7,0,0,1-1.46-2.86,31.2,31.2,0,0,1-.51-6.54Z"/><path class="cls-2" d="M206.45,184.69V163.28H198.8v-4.36h20.48v4.36h-7.63v21.41Z"/><path class="cls-2" d="M223.36,184.69V158.92h19.11v4.36H228.56V169H241.5v4.34H228.56v7H243v4.34Z"/><path class="cls-2" d="M248.11,184.69V158.92h10.95a18.82,18.82,0,0,1,6,.69,6,6,0,0,1,3,2.47,7.45,7.45,0,0,1,1.13,4.06,6.86,6.86,0,0,1-1.71,4.79,8.16,8.16,0,0,1-5.1,2.38,12,12,0,0,1,2.79,2.17,29.25,29.25,0,0,1,3,4.18l3.15,5h-6.23l-3.76-5.61a36.28,36.28,0,0,0-2.74-3.79,3.94,3.94,0,0,0-1.56-1.07,8.71,8.71,0,0,0-2.62-.29h-1.06v10.76Zm5.2-14.87h3.85a19.87,19.87,0,0,0,4.68-.32,2.78,2.78,0,0,0,1.46-1.09,3.37,3.37,0,0,0,.52-1.93,3.09,3.09,0,0,0-.69-2.1,3.15,3.15,0,0,0-2-1c-.42-.06-1.69-.09-3.8-.09h-4.06Z"/></g></g></svg>