<svg xmlns="http://www.w3.org/2000/svg" viewBox="0 0 778.85 131.17"><defs><style>.cls-1{fill:#231f20;}.cls-2{fill:#f16522;}.cls-3{fill:#f7931e;}</style></defs><g id="Layer_2" data-name="Layer 2"><g id="Layer_1-2" data-name="Layer 1"><path class="cls-1" d="M205.54,39.39c1.06,0,1.56.57,1.56,1.78v7.65c0,1.21-.5,1.78-1.56,1.78h-35.4c-2.68,0-3.74,1.69-3.74,4.51v2.74c0,3,1.2,4.51,3.67,4.51h26.5c8.13,0,12.37,5,12.37,13.86v6.45c0,7.82-4,13.14-12.51,13.14H157.28c-1.06,0-1.62-.57-1.62-1.78V86.38c0-1.21.56-1.78,1.62-1.78h37.1c2.68,0,3.74-1.69,3.74-4.51v-3.3c0-3-1.2-4.52-3.67-4.52H168c-8.12,0-12.36-5-12.36-13.86V52.53c0-7.82,4-13.14,12.51-13.14Z"/><path class="cls-1" d="M253.45,51.56c9.68,0,12.22,3.47,12.22,13.22v7.66c0,3.46-1.27,4.59-4,4.59H226V79c0,5.08,1.63,7.18,7.78,7.18H263.2c.85,0,1.27.48,1.27,1.45v6.77c0,1-.42,1.45-1.27,1.45H232.75c-12.72,0-16.82-4.6-16.82-16.28V67.92c0-11.68,4.1-16.36,16.82-16.36ZM226,69.86h28.62c.85,0,1.2-.33,1.2-1.37V65.1c0-3.3-1.06-4.59-4.31-4.59H233.74c-6.15,0-7.78,2-7.78,7.17Z"/><path class="cls-1" d="M282.28,35.36c1.06,0,1.55.57,1.55,1.78V51.56h26.5c12.72,0,16.81,4.68,16.81,16.36V79.53c0,11.68-4.09,16.28-16.81,16.28H290.54c-12.72,0-16.81-4.6-16.81-16.28V37.14c0-1.21.56-1.78,1.62-1.78Zm1.55,25.87v16c0,6.77,1.63,8.87,7.7,8.87h17.81c6.15,0,7.77-2.1,7.77-8.87V70.1c0-6.77-1.62-8.87-7.77-8.87Z"/><path class="cls-1" d="M367.56,51.56c12.72,0,16.82,4.68,16.82,16.36V89.36c0,5.24-1.14,6.45-5.23,6.45H345.51c-8.33,0-10.88-3.47-10.88-11.45V80.49c0-6.77,2.55-10.55,10.88-10.55h28.76V68.41c0-5.16-1.55-7.18-7.7-7.18H337c-.84,0-1.27-.4-1.27-1.45V53c0-1,.43-1.45,1.27-1.45Zm6.71,32.64V77.11H348.41c-2.9,0-4,1.37-4,4v1.69c0,2.9,1.06,4.19,4,4.19h23.81C373.71,86.94,374.27,86.22,374.27,84.2Z"/><path class="cls-1" d="M429,51.56c.85,0,1.27.49,1.27,1.45v6.77c0,1-.42,1.45-1.27,1.45H410.24c-6.08,0-7.71,2.1-7.71,8.87V94c0,1.21-.49,1.78-1.55,1.78h-6.93c-1.05,0-1.62-.57-1.62-1.78V67.92c0-11.68,4.1-16.36,16.82-16.36Z"/><path class="cls-1" d="M468,51.56c12.72,0,16.82,4.68,16.82,16.36V89.36c0,5.24-1.13,6.45-5.23,6.45H446c-8.34,0-10.88-3.47-10.88-11.45V80.49c0-6.77,2.54-10.55,10.88-10.55h28.76V68.41c0-5.16-1.56-7.18-7.71-7.18H437.51c-.85,0-1.27-.4-1.27-1.45V53c0-1,.42-1.45,1.27-1.45Zm6.72,32.64V77.11H448.88c-2.89,0-3.95,1.37-3.95,4v1.69c0,2.9,1.06,4.19,3.95,4.19H472.7C474.18,86.94,474.75,86.22,474.75,84.2Z"/><path class="cls-1" d="M507.32,39.39c4.24,0,5.65,1,7.56,6.13L529.57,84.2a.93.93,0,0,0,1,.73h.85a.92.92,0,0,0,1-.73l14.7-38.68c1.91-5.08,3.32-6.13,7.49-6.13h7.56c4.94,0,6.22,2.26,6.22,8.39V94c0,1.21-.57,1.78-1.63,1.78h-7.21c-1.06,0-1.55-.57-1.55-1.78V52c0-.57-.14-.81-.57-.81h-.63a.81.81,0,0,0-.92.64L541.59,87.91c-2.34,5.8-4.31,7.9-9.05,7.9h-3.39c-4.73,0-6.71-2.1-9-7.9L505.83,51.8a.81.81,0,0,0-.91-.64h-.64c-.42,0-.57.24-.57.81V94c0,1.21-.49,1.78-1.55,1.78H495c-1.06,0-1.62-.57-1.62-1.78V47.78c0-6.13,1.27-8.39,6.29-8.39Z"/><path class="cls-1" d="M609.56,51.56c12.72,0,16.81,4.68,16.81,16.36V89.36c0,5.24-1.13,6.45-5.22,6.45H587.51c-8.33,0-10.88-3.47-10.88-11.45V80.49c0-6.77,2.55-10.55,10.88-10.55h28.76V68.41c0-5.16-1.55-7.18-7.7-7.18H579c-.84,0-1.27-.4-1.27-1.45V53c0-1,.43-1.45,1.27-1.45Zm6.71,32.64V77.11H590.41c-2.9,0-4,1.37-4,4v1.69c0,2.9,1.06,4.19,4,4.19h23.81C615.7,86.94,616.27,86.22,616.27,84.2Z"/><path class="cls-1" d="M643.19,35.36c1.06,0,1.55.57,1.55,1.78V94c0,1.21-.49,1.78-1.55,1.78h-6.92c-1.06,0-1.56-.57-1.56-1.78V37.14c0-1.21.5-1.78,1.56-1.78Z"/><path class="cls-1" d="M690.39,51.56c9.68,0,12.22,3.47,12.22,13.22v7.66c0,3.46-1.27,4.59-4,4.59H662.9V79c0,5.08,1.63,7.18,7.77,7.18h29.47c.85,0,1.27.48,1.27,1.45v6.77c0,1-.42,1.45-1.27,1.45H669.69c-12.72,0-16.82-4.6-16.82-16.28V67.92c0-11.68,4.1-16.36,16.82-16.36ZM662.9,69.86h28.62c.85,0,1.2-.33,1.2-1.37V65.1c0-3.3-1.06-4.59-4.31-4.59H670.67c-6.14,0-7.77,2-7.77,7.17Z"/><path class="cls-1" d="M719.43,35.36c1.06,0,1.55.57,1.55,1.78V94c0,1.21-.49,1.78-1.55,1.78H712.5c-1.06,0-1.55-.57-1.55-1.78V37.14c0-1.21.49-1.78,1.55-1.78Z"/><path class="cls-1" d="M766.62,51.56c9.68,0,12.23,3.47,12.23,13.22v7.66c0,3.46-1.27,4.59-4,4.59H739.14V79c0,5.08,1.62,7.18,7.77,7.18h29.47c.84,0,1.27.48,1.27,1.45v6.77c0,1-.43,1.45-1.27,1.45H745.92c-12.72,0-16.82-4.6-16.82-16.28V67.92c0-11.68,4.1-16.36,16.82-16.36Zm-27.48,18.3h28.62c.84,0,1.2-.33,1.2-1.37V65.1c0-3.3-1.06-4.59-4.31-4.59H746.91c-6.15,0-7.77,2-7.77,7.17Z"/><path class="cls-2" d="M531.25,71l10.1-29.17a.34.34,0,0,0-.32-.45H520.82a.33.33,0,0,0-.32.45L530.6,71A.34.34,0,0,0,531.25,71Z"/><path class="cls-2" d="M0,131.17H13.31c.1-20.9-.16-41.46-.07-62.36l13.12-13q-.06,37.7-.14,75.4h45.7c0-33.83.26-67.67.21-101.5L88.46,42.79q.08,44.19.14,88.38h42.57V55.63l-13-10.05.14,72.41-16.64.05,0-82.09L59.19,0l-.42,114.69L39.2,114q0-43.8.1-87.6L0,59Z"/><path class="cls-1" d="M158.23,130.26V112.62h6.88a9.79,9.79,0,0,1,4,.73,5.61,5.61,0,0,1,2.52,2.12,6.61,6.61,0,0,1,0,6.59,5.8,5.8,0,0,1-2.52,2.12,9.62,9.62,0,0,1-4,.74h-5.49l1.13-1.19v6.53Zm2.52-6.27-1.13-1.26H165a5.6,5.6,0,0,0,3.66-1,4,4,0,0,0,0-5.84,5.6,5.6,0,0,0-3.66-1h-5.42l1.13-1.26Z"/><path class="cls-1" d="M196.56,130.26V112.62h6.88a9.79,9.79,0,0,1,4,.73,5.61,5.61,0,0,1,2.52,2.12,6.61,6.61,0,0,1,0,6.59,5.63,5.63,0,0,1-2.52,2.1,9.62,9.62,0,0,1-4,.73H198l1.13-1.16v6.53Zm2.52-6.27L198,122.75h5.42a5.6,5.6,0,0,0,3.66-1,3.61,3.61,0,0,0,1.25-2.94,3.56,3.56,0,0,0-1.25-2.92,5.6,5.6,0,0,0-3.66-1H198l1.13-1.26Zm9.28,6.27-4.49-6.4h2.7l4.53,6.4Z"/><path class="cls-1" d="M243.23,130.46a10,10,0,0,1-3.74-.68,8.82,8.82,0,0,1-5-4.76,8.93,8.93,0,0,1,4.94-11.92,10.7,10.7,0,0,1,7.48,0,8.61,8.61,0,0,1,3,1.89,8.5,8.5,0,0,1,1.95,2.87,9.71,9.71,0,0,1,0,7.19,8.6,8.6,0,0,1-1.95,2.87,8.92,8.92,0,0,1-3,1.89A10.26,10.26,0,0,1,243.23,130.46Zm0-2.24a7.33,7.33,0,0,0,2.73-.5,6.31,6.31,0,0,0,2.17-1.43,6.77,6.77,0,0,0,1.44-2.15,7,7,0,0,0,.51-2.7,6.7,6.7,0,0,0-1.95-4.84,6.17,6.17,0,0,0-2.17-1.43,7.51,7.51,0,0,0-5.44,0,6.4,6.4,0,0,0-2.18,1.43,6.78,6.78,0,0,0-1.45,2.16,6.88,6.88,0,0,0-.52,2.68,7,7,0,0,0,.52,2.7,6.63,6.63,0,0,0,1.45,2.15,6.55,6.55,0,0,0,2.18,1.43A7.3,7.3,0,0,0,243.21,128.22Z"/><path class="cls-1" d="M278.72,130.46a6.65,6.65,0,0,1-2.93-.65,5.7,5.7,0,0,1-2.21-1.89L275,126.2a5.25,5.25,0,0,0,1.65,1.55,3.84,3.84,0,0,0,2,.55c2,0,3-1.2,3-3.58v-9.91h-6.37v-2.19h8.87v12a6.16,6.16,0,0,1-1.4,4.41A5.42,5.42,0,0,1,278.72,130.46Z"/><path class="cls-1" d="M312.28,128.07h10.28v2.19h-12.8V112.62h12.45v2.19h-9.93Zm-.22-7.84h9.07v2.14h-9.07Z"/><path class="cls-1" d="M354.9,130.46a10.17,10.17,0,0,1-3.72-.66,8.68,8.68,0,0,1-4.9-4.76,9.48,9.48,0,0,1,0-7.2,8.72,8.72,0,0,1,4.93-4.75,10,10,0,0,1,3.71-.67,10.07,10.07,0,0,1,3.77.69,7.84,7.84,0,0,1,2.94,2.06L360,116.75a6.54,6.54,0,0,0-2.27-1.57,7,7,0,0,0-2.7-.52,7.36,7.36,0,0,0-2.76.51,6.49,6.49,0,0,0-2.2,1.41,6.28,6.28,0,0,0-1.45,2.15,7.32,7.32,0,0,0,0,5.42,6.42,6.42,0,0,0,1.45,2.16,6.8,6.8,0,0,0,2.2,1.41,7.56,7.56,0,0,0,2.76.5,7,7,0,0,0,2.7-.52,6.24,6.24,0,0,0,2.27-1.6l1.64,1.59a7.86,7.86,0,0,1-2.94,2.07A10,10,0,0,1,354.9,130.46Z"/><path class="cls-1" d="M388.92,130.26V114.81h-6.05v-2.19h14.59v2.19h-6v15.45Z"/><path class="cls-1" d="M425.51,130.46a12.09,12.09,0,0,1-3.86-.61,8.07,8.07,0,0,1-2.89-1.6l.93-2a8,8,0,0,0,2.57,1.46,9.16,9.16,0,0,0,3.25.58A7.44,7.44,0,0,0,428,128a3,3,0,0,0,1.41-1,2.26,2.26,0,0,0,.46-1.4,1.93,1.93,0,0,0-.59-1.46,4.51,4.51,0,0,0-1.54-.9,18.63,18.63,0,0,0-2.08-.59c-.76-.17-1.52-.36-2.28-.59a10.4,10.4,0,0,1-2.09-.87,4.35,4.35,0,0,1-1.53-1.42,4.25,4.25,0,0,1-.58-2.31,4.64,4.64,0,0,1,.72-2.51,5.08,5.08,0,0,1,2.22-1.84,9.16,9.16,0,0,1,3.82-.69,11.78,11.78,0,0,1,3.05.4,8.72,8.72,0,0,1,2.62,1.16l-.83,2a8.12,8.12,0,0,0-2.4-1.1,9.19,9.19,0,0,0-2.44-.34,6.81,6.81,0,0,0-2.45.38,3,3,0,0,0-1.4,1,2.43,2.43,0,0,0-.44,1.41,1.94,1.94,0,0,0,.6,1.49,4.19,4.19,0,0,0,1.53.88c.63.22,1.33.41,2.08.59s1.52.37,2.28.59a9.84,9.84,0,0,1,2.09.86,4.32,4.32,0,0,1,1.53,1.41,4.11,4.11,0,0,1,.58,2.27,4.57,4.57,0,0,1-.73,2.48,5,5,0,0,1-2.26,1.84A9.32,9.32,0,0,1,425.51,130.46Z"/><rect class="cls-3" x="36.85" y="130.13" width="1" height="1"/></g></g></svg>