<svg xmlns="http://www.w3.org/2000/svg" viewBox="0 0 935.27 157.51"><defs><style>.cls-1{fill:#fff;}</style></defs><g id="Layer_2" data-name="Layer 2"><g id="Layer_1-2" data-name="Layer 1"><path className="cls-1" d="M246.82,47.31c1.28,0,1.87.67,1.87,2.12v9.2c0,1.45-.59,2.13-1.87,2.13h-42.5c-3.23,0-4.5,2-4.5,5.42v3.29c0,3.58,1.44,5.42,4.41,5.42h31.82c9.76,0,14.85,6,14.85,16.64v7.75c0,9.38-4.76,15.77-15,15.77h-47c-1.27,0-2-.68-2-2.13v-9.19c0-1.46.68-2.13,2-2.13h44.55c3.22,0,4.49-2,4.49-5.42v-4c0-3.58-1.44-5.42-4.41-5.42H201.68c-9.75,0-14.84-6-14.84-16.65V63.08c0-9.39,4.75-15.77,15-15.77Z"/><path className="cls-1" d="M304.35,61.92C316,61.92,319,66.08,319,77.79V87c0,4.17-1.53,5.52-4.84,5.52H271.34v2.32c0,6.1,2,8.62,9.34,8.62h35.38q1.53,0,1.53,1.74v8.13q0,1.74-1.53,1.74H279.49c-15.27,0-20.19-5.52-20.19-19.55V81.56c0-14,4.92-19.64,20.19-19.64Zm-33,22h34.37c1,0,1.44-.39,1.44-1.65V78.18c0-4-1.27-5.52-5.18-5.52H280.68c-7.38,0-9.34,2.42-9.34,8.61Z"/><path className="cls-1" d="M339,42.47c1.27,0,1.86.67,1.86,2.13V61.92h31.82c15.27,0,20.2,5.61,20.2,19.64V95.5c0,14-4.93,19.55-20.2,19.55H348.89c-15.27,0-20.19-5.52-20.19-19.55V44.6c0-1.46.68-2.13,1.95-2.13Zm1.86,31.06V92.79c0,8.13,2,10.65,9.25,10.65h21.38c7.39,0,9.34-2.52,9.34-10.65V84.18c0-8.13-1.95-10.65-9.34-10.65Z"/><path className="cls-1" d="M441.38,61.92c15.27,0,20.19,5.61,20.19,19.64v25.75c0,6.29-1.36,7.74-6.28,7.74H414.91c-10,0-13.07-4.16-13.07-13.74V96.66c0-8.13,3.05-12.68,13.07-12.68h34.53V82.14c0-6.19-1.87-8.61-9.25-8.61H404.72c-1,0-1.52-.48-1.52-1.74V63.66c0-1.16.5-1.74,1.52-1.74Zm8.06,39.19V92.6H418.38c-3.47,0-4.75,1.64-4.75,4.74v2c0,3.48,1.28,5,4.75,5H447C448.76,104.4,449.44,103.53,449.44,101.11Z"/><path className="cls-1" d="M515.2,61.92c1,0,1.52.58,1.52,1.74v8.13c0,1.26-.51,1.74-1.52,1.74H492.63c-7.3,0-9.25,2.52-9.25,10.65v28.74c0,1.45-.6,2.13-1.87,2.13h-8.32c-1.27,0-1.95-.68-1.95-2.13V81.56c0-14,4.93-19.64,20.2-19.64Z"/><path className="cls-1" d="M562,61.92c15.27,0,20.2,5.61,20.2,19.64v25.75c0,6.29-1.36,7.74-6.28,7.74H535.56c-10,0-13.07-4.16-13.07-13.74V96.66c0-8.13,3.06-12.68,13.07-12.68h34.53V82.14c0-6.19-1.87-8.61-9.25-8.61H525.38c-1,0-1.53-.48-1.53-1.74V63.66q0-1.74,1.53-1.74Zm8.06,39.19V92.6H539c-3.48,0-4.76,1.64-4.76,4.74v2c0,3.48,1.28,5,4.76,5h28.59C569.41,104.4,570.09,103.53,570.09,101.11Z"/><path className="cls-1" d="M609.21,47.31c5.09,0,6.78,1.25,9.07,7.35l17.65,46.45a1.11,1.11,0,0,0,1.19.87h1a1.11,1.11,0,0,0,1.19-.87L657,54.66c2.3-6.1,4-7.35,9-7.35h9.08c5.94,0,7.47,2.71,7.47,10.06v55.55c0,1.45-.68,2.13-2,2.13h-8.65c-1.27,0-1.87-.68-1.87-2.13V62.4c0-.68-.17-1-.68-1h-.76a1,1,0,0,0-1.1.78l-17.14,43.36c-2.8,7-5.18,9.48-10.86,9.48h-4.08c-5.68,0-8.06-2.52-10.86-9.48L607.42,62.21a1,1,0,0,0-1.1-.78h-.76c-.51,0-.68.29-.68,1v50.52c0,1.45-.6,2.13-1.87,2.13h-8.65c-1.28,0-2-.68-2-2.13V57.37c0-7.35,1.53-10.06,7.56-10.06Z"/><path className="cls-1" d="M732,61.92c15.27,0,20.19,5.61,20.19,19.64v25.75c0,6.29-1.35,7.74-6.28,7.74H705.51c-10,0-13.07-4.16-13.07-13.74V96.66c0-8.13,3.06-12.68,13.07-12.68H740V82.14c0-6.19-1.87-8.61-9.25-8.61H695.33c-1,0-1.53-.48-1.53-1.74V63.66q0-1.74,1.53-1.74ZM740,101.11V92.6H709c-3.48,0-4.76,1.64-4.76,4.74v2c0,3.48,1.28,5,4.76,5h28.59C739.36,104.4,740,103.53,740,101.11Z"/><path className="cls-1" d="M772.37,42.47c1.27,0,1.86.67,1.86,2.13v68.32c0,1.45-.59,2.13-1.86,2.13h-8.32c-1.27,0-1.87-.68-1.87-2.13V44.6c0-1.46.6-2.13,1.87-2.13Z"/><path className="cls-1" d="M829,61.92c11.63,0,14.68,4.16,14.68,15.87V87c0,4.17-1.52,5.52-4.84,5.52H796v2.32c0,6.1,2,8.62,9.33,8.62h35.38q1.53,0,1.53,1.74v8.13q0,1.74-1.53,1.74H804.18c-15.27,0-20.19-5.52-20.19-19.55V81.56c0-14,4.92-19.64,20.19-19.64Zm-33,22H830.4c1,0,1.44-.39,1.44-1.65V78.18c0-4-1.27-5.52-5.17-5.52h-21.3c-7.38,0-9.33,2.42-9.33,8.61Z"/><path className="cls-1" d="M863.91,42.47c1.28,0,1.87.67,1.87,2.13v68.32c0,1.45-.59,2.13-1.87,2.13H855.6c-1.28,0-1.87-.68-1.87-2.13V44.6c0-1.46.59-2.13,1.87-2.13Z"/><path className="cls-1" d="M920.59,61.92c11.62,0,14.68,4.16,14.68,15.87V87c0,4.17-1.53,5.52-4.84,5.52H887.58v2.32c0,6.1,2,8.62,9.34,8.62H932.3q1.53,0,1.53,1.74v8.13q0,1.74-1.53,1.74H895.73c-15.27,0-20.2-5.52-20.2-19.55V81.56c0-14,4.93-19.64,20.2-19.64Zm-33,22H922c1,0,1.44-.39,1.44-1.65V78.18c0-4-1.27-5.52-5.17-5.52h-21.3c-7.38,0-9.34,2.42-9.34,8.61Z"/><path className="cls-1" d="M637.87,85.45l12.24-35.31a.34.34,0,0,0-.33-.45H625.32a.34.34,0,0,0-.32.45l12.23,35.31A.34.34,0,0,0,637.87,85.45Z"/><path className="cls-1" d="M0,157.51H16c.11-25.1-.2-49.78-.09-74.88L31.66,67q-.09,45.27-.17,90.54H86.37c-.06-40.62.3-81.25.25-121.88l19.6,15.75q.09,53.07.17,106.13h51.12V66.8L141.92,54.73l.16,87-20,.06,0-98.57L71.08,0l-.51,137.72-23.5-.88q.06-52.59.13-105.19L0,70.86Z"/><path className="cls-1" d="M190,156.42V135.24h8.26a11.51,11.51,0,0,1,4.75.88,6.68,6.68,0,0,1,3,2.54,7.2,7.2,0,0,1,1.06,4,7.07,7.07,0,0,1-1.06,3.94,6.88,6.88,0,0,1-3,2.55,11.51,11.51,0,0,1-4.75.89h-6.59l1.36-1.42v7.83Zm3-7.53-1.36-1.51h6.5a6.82,6.82,0,0,0,4.41-1.24,4.88,4.88,0,0,0,0-7,6.76,6.76,0,0,0-4.41-1.25h-6.5l1.36-1.51Z"/><path className="cls-1" d="M236,156.42V135.24h8.26a11.51,11.51,0,0,1,4.75.88,6.73,6.73,0,0,1,3,2.54,7.28,7.28,0,0,1,1.06,4,7.16,7.16,0,0,1-1.06,3.94,6.77,6.77,0,0,1-3,2.53,11.51,11.51,0,0,1-4.75.88h-6.6l1.37-1.39v7.83Zm3-7.53-1.37-1.48h6.51a6.66,6.66,0,0,0,4.4-1.26,4.34,4.34,0,0,0,1.5-3.52,4.28,4.28,0,0,0-1.5-3.51,6.71,6.71,0,0,0-4.4-1.25H237.7l1.37-1.51Zm11.13,7.53-5.38-7.68h3.23l5.45,7.68Z"/><path className="cls-1" d="M292.08,156.67a12.23,12.23,0,0,1-4.49-.82,11,11,0,0,1-3.59-2.28,11.09,11.09,0,0,1-2.36-12,10.53,10.53,0,0,1,5.94-5.72,12,12,0,0,1,4.5-.82,12.3,12.3,0,0,1,4.48.8,10.67,10.67,0,0,1,3.57,2.27,10.42,10.42,0,0,1,2.35,3.45,11.66,11.66,0,0,1,0,8.64,10.48,10.48,0,0,1-2.35,3.44,10.83,10.83,0,0,1-3.57,2.27A12.3,12.3,0,0,1,292.08,156.67Zm0-2.7a8.79,8.79,0,0,0,3.29-.6,7.79,7.79,0,0,0,2.6-1.71,7.88,7.88,0,0,0,1.72-2.59,8.21,8.21,0,0,0,.63-3.24,8.18,8.18,0,0,0-2.35-5.81,7.67,7.67,0,0,0-2.6-1.72,8.6,8.6,0,0,0-3.29-.61,8.47,8.47,0,0,0-3.25.61,7.85,7.85,0,0,0-2.62,1.72,8.47,8.47,0,0,0-1.74,9,8.09,8.09,0,0,0,1.74,2.59,8,8,0,0,0,2.62,1.71A8.66,8.66,0,0,0,292.05,154Z"/><path className="cls-1" d="M334.69,156.67a7.92,7.92,0,0,1-3.51-.79,6.72,6.72,0,0,1-2.66-2.27l1.75-2.06a6.57,6.57,0,0,0,2,1.86,4.61,4.61,0,0,0,2.43.65q3.63,0,3.63-4.29v-11.9h-7.65v-2.63h10.65v14.38a7.38,7.38,0,0,1-1.68,5.29A6.54,6.54,0,0,1,334.69,156.67Z"/><path className="cls-1" d="M375,153.79h12.35v2.63H372V135.24h14.95v2.63H375Zm-.27-9.41h10.89V147H374.73Z"/><path className="cls-1" d="M426.17,156.67a12.19,12.19,0,0,1-4.46-.8,10.5,10.5,0,0,1-5.89-5.71,11.55,11.55,0,0,1,0-8.65,10.51,10.51,0,0,1,5.92-5.71,12.8,12.8,0,0,1,9,0,9.26,9.26,0,0,1,3.52,2.47l-2,1.9a8.09,8.09,0,0,0-2.73-1.89,8.52,8.52,0,0,0-3.23-.62,8.79,8.79,0,0,0-3.32.61,8,8,0,0,0-2.65,1.69,7.87,7.87,0,0,0-1.74,2.59,8.85,8.85,0,0,0,0,6.51,7.83,7.83,0,0,0,1.74,2.58,8,8,0,0,0,2.65,1.7,9,9,0,0,0,3.32.6,8.33,8.33,0,0,0,3.23-.62,7.65,7.65,0,0,0,2.73-1.92l2,1.91a9.39,9.39,0,0,1-3.52,2.48A12,12,0,0,1,426.17,156.67Z"/><path className="cls-1" d="M467,156.42V137.87h-7.27v-2.63h17.53v2.63H470v18.55Z"/><path className="cls-1" d="M511,156.67a14.53,14.53,0,0,1-4.63-.74,9.41,9.41,0,0,1-3.48-1.93l1.12-2.36a9.77,9.77,0,0,0,3.08,1.76,11.26,11.26,0,0,0,3.91.69,8.83,8.83,0,0,0,3-.42,3.59,3.59,0,0,0,1.7-1.16,2.81,2.81,0,0,0,.54-1.68,2.32,2.32,0,0,0-.71-1.76,5.29,5.29,0,0,0-1.84-1.07,19.09,19.09,0,0,0-2.5-.71c-.91-.21-1.82-.44-2.74-.72a12.11,12.11,0,0,1-2.51-1,5,5,0,0,1-1.83-1.71,5,5,0,0,1-.7-2.77,5.6,5.6,0,0,1,.86-3,6.06,6.06,0,0,1,2.67-2.21,11,11,0,0,1,4.58-.83,14.26,14.26,0,0,1,3.66.48,10.32,10.32,0,0,1,3.15,1.4l-1,2.42a9.55,9.55,0,0,0-2.87-1.32,11.38,11.38,0,0,0-2.94-.41,7.86,7.86,0,0,0-2.93.46,3.49,3.49,0,0,0-1.68,1.21,2.83,2.83,0,0,0-.53,1.69,2.32,2.32,0,0,0,.71,1.79,5.27,5.27,0,0,0,1.84,1.06c.76.26,1.59.49,2.5.71s1.82.45,2.74.71a11.29,11.29,0,0,1,2.51,1,5.13,5.13,0,0,1,1.83,1.69,4.82,4.82,0,0,1,.7,2.72,5.44,5.44,0,0,1-.88,3,6.06,6.06,0,0,1-2.71,2.2A11.08,11.08,0,0,1,511,156.67Z"/></g></g></svg>